<?xml version="1.0" encoding="UTF-8"?>
<svg version="1.1" xmlns="http://www.w3.org/2000/svg" width="1000" height="1000">
<path d="M0 0 C4.95 0 9.9 0 15 0 C15 0.66 15 1.32 15 2 C18.96 2 22.92 2 27 2 C27 2.99 27 3.98 27 5 C29.97 5 32.94 5 36 5 C36 5.66 36 6.32 36 7 C39.96 7 43.92 7 48 7 C48 7.99 48 8.98 48 10 C51.96 10 55.92 10 60 10 C60 10.66 60 11.32 60 12 C63.3 12 66.6 12 70 12 C70 12.66 70 13.32 70 14 C73.96 14 77.92 14 82 14 C82 14.99 82 15.98 82 17 C85.96 17 89.92 17 94 17 C94 17.66 94 18.32 94 19 C97.3 19 100.6 19 104 19 C104 19.99 104 20.98 104 22 C107.96 22 111.92 22 116 22 C116 22.66 116 23.32 116 24 C119.96 24 123.92 24 128 24 C128 24.99 128 25.98 128 27 C131.96 27 135.92 27 140 27 C140 27.66 140 28.32 140 29 C143.3 29 146.6 29 150 29 C150 29.66 150 30.32 150 31 C153.96 31 157.92 31 162 31 C162 31.99 162 32.98 162 34 C165.96 34 169.92 34 174 34 C174 34.66 174 35.32 174 36 C177.3 36 180.6 36 184 36 C184 36.99 184 37.98 184 39 C187.96 39 191.92 39 196 39 C196 39.66 196 40.32 196 41 C198.97 41 201.94 41 205 41 C205 41.66 205 42.32 205 43 C208.96 43 212.92 43 217 43 C217 43.99 217 44.98 217 46 C221.29 46 225.58 46 230 46 C230 46.66 230 47.32 230 48 C233.96 48 237.92 48 242 48 C242 48.99 242 49.98 242 51 C244.97 51 247.94 51 251 51 C251 51.66 251 52.32 251 53 C254.3 53 257.6 53 261 53 C261 53.99 261 54.98 261 56 C264.96 56 268.92 56 273 56 C273 56.66 273 57.32 273 58 C276.96 58 280.92 58 285 58 C285 58.66 285 59.32 285 60 C288.96 60 292.92 60 297 60 C297 60.99 297 61.98 297 63 C300.3 63 303.6 63 307 63 C307 63.66 307 64.32 307 65 C310.96 65 314.92 65 319 65 C319 65.99 319 66.98 319 68 C322.96 68 326.92 68 331 68 C331 68.66 331 69.32 331 70 C334.3 70 337.6 70 341 70 C341 70.66 341 71.32 341 72 C344.96 72 348.92 72 353 72 C353 72.99 353 73.98 353 75 C356.96 75 360.92 75 365 75 C365 75.66 365 76.32 365 77 C367.97 77 370.94 77 374 77 C374 77.99 374 78.98 374 80 C378.29 80 382.58 80 387 80 C387 80.66 387 81.32 387 82 C390.96 82 394.92 82 399 82 C399 82.99 399 83.98 399 85 C401.97 85 404.94 85 408 85 C408 85.66 408 86.32 408 87 C411.96 87 415.92 87 420 87 C420 87.66 420 88.32 420 89 C423.3 89 426.6 89 430 89 C430 89.99 430 90.98 430 92 C433.3 92 436.6 92 440 92 C440 94.97 440 97.94 440 101 C440.66 101 441.32 101 442 101 C442 109.91 442 118.82 442 128 C442.99 128 443.98 128 445 128 C445 135.26 445 142.52 445 150 C445.66 150 446.32 150 447 150 C447 157.92 447 165.84 447 174 C447.66 174 448.32 174 449 174 C449 181.92 449 189.84 449 198 C449.99 198 450.98 198 452 198 C452 205.92 452 213.84 452 222 C452.66 222 453.32 222 454 222 C454 230.91 454 239.82 454 249 C454.99 249 455.98 249 457 249 C457 256.92 457 264.84 457 273 C457.66 273 458.32 273 459 273 C459 280.92 459 288.84 459 297 C459.66 297 460.32 297 461 297 C461 305.91 461 314.82 461 324 C461.99 324 462.98 324 464 324 C464 332.58 464 341.16 464 350 C463.01 350 462.02 350 461 350 C461 350.99 461 351.98 461 353 C460.34 353 459.68 353 459 353 C459 353.66 459 354.32 459 355 C458.34 355 457.68 355 457 355 C457 355.66 457 356.32 457 357 C455.35 357 453.7 357 452 357 C452 358.65 452 360.3 452 362 C450.35 362 448.7 362 447 362 C447 363.65 447 365.3 447 367 C446.34 367 445.68 367 445 367 C445 367.99 445 368.98 445 370 C444.01 370 443.02 370 442 370 C442 370.66 442 371.32 442 372 C441.34 372 440.68 372 440 372 C440 372.66 440 373.32 440 374 C439.01 374 438.02 374 437 374 C437 374.99 437 375.98 437 377 C436.34 377 435.68 377 435 377 C435 377.66 435 378.32 435 379 C434.01 379 433.02 379 432 379 C432 379.99 432 380.98 432 382 C431.34 382 430.68 382 430 382 C430 382.66 430 383.32 430 384 C429.34 384 428.68 384 428 384 C428 384.66 428 385.32 428 386 C427.01 386 426.02 386 425 386 C425 386.99 425 387.98 425 389 C423.35 389 421.7 389 420 389 C420 389.66 420 390.32 420 391 C419.34 391 418.68 391 418 391 C418 391.99 418 392.98 418 394 C417.34 394 416.68 394 416 394 C416 394.66 416 395.32 416 396 C415.01 396 414.02 396 413 396 C413 396.99 413 397.98 413 399 C412.34 399 411.68 399 411 399 C411 399.66 411 400.32 411 401 C409.35 401 407.7 401 406 401 C406 401.66 406 402.32 406 403 C405.01 403 404.02 403 403 403 C403 403.99 403 404.98 403 406 C402.34 406 401.68 406 401 406 C401 406.66 401 407.32 401 408 C400.34 408 399.68 408 399 408 C399 408.99 399 409.98 399 411 C398.01 411 397.02 411 396 411 C396 411.66 396 412.32 396 413 C394.35 413 392.7 413 391 413 C391 413.66 391 414.32 391 415 C390.34 415 389.68 415 389 415 C389 415.99 389 416.98 389 418 C388.34 418 387.68 418 387 418 C387 418.66 387 419.32 387 420 C386.01 420 385.02 420 384 420 C384 420.99 384 421.98 384 423 C383.34 423 382.68 423 382 423 C382 423.66 382 424.32 382 425 C380.35 425 378.7 425 377 425 C377 425.99 377 426.98 377 428 C376.01 428 375.02 428 374 428 C374 428.66 374 429.32 374 430 C373.34 430 372.68 430 372 430 C372 430.66 372 431.32 372 432 C371.34 432 370.68 432 370 432 C370 432.99 370 433.98 370 435 C368.35 435 366.7 435 365 435 C365 435.66 365 436.32 365 437 C364.01 437 363.02 437 362 437 C362 437.99 362 438.98 362 440 C361.34 440 360.68 440 360 440 C360 440.66 360 441.32 360 442 C359.34 442 358.68 442 358 442 C358 442.66 358 443.32 358 444 C357.01 444 356.02 444 355 444 C355 444.99 355 445.98 355 447 C353.35 447 351.7 447 350 447 C350 447.66 350 448.32 350 449 C349.34 449 348.68 449 348 449 C348 449.99 348 450.98 348 452 C347.01 452 346.02 452 345 452 C345 452.66 345 453.32 345 454 C344.34 454 343.68 454 343 454 C343 454.99 343 455.98 343 457 C342.34 457 341.68 457 341 457 C341 457.66 341 458.32 341 459 C339.35 459 337.7 459 336 459 C336 459.66 336 460.32 336 461 C335.01 461 334.02 461 333 461 C333 461.99 333 462.98 333 464 C332.34 464 331.68 464 331 464 C331 464.66 331 465.32 331 466 C330.34 466 329.68 466 329 466 C329 466.99 329 467.98 329 469 C328.01 469 327.02 469 326 469 C326 469.66 326 470.32 326 471 C324.35 471 322.7 471 321 471 C321 471.66 321 472.32 321 473 C320.34 473 319.68 473 319 473 C319 473.99 319 474.98 319 476 C318.01 476 317.02 476 316 476 C316 476.66 316 477.32 316 478 C315.34 478 314.68 478 314 478 C314 478.99 314 479.98 314 481 C313.34 481 312.68 481 312 481 C312 481.66 312 482.32 312 483 C310.35 483 308.7 483 307 483 C307 483.99 307 484.98 307 486 C306.01 486 305.02 486 304 486 C304 486.66 304 487.32 304 488 C303.34 488 302.68 488 302 488 C302 488.66 302 489.32 302 490 C301.34 490 300.68 490 300 490 C300 490.99 300 491.98 300 493 C298.35 493 296.7 493 295 493 C295 493.66 295 494.32 295 495 C294.01 495 293.02 495 292 495 C292 495.99 292 496.98 292 498 C291.34 498 290.68 498 290 498 C290 498.66 290 499.32 290 500 C289.01 500 288.02 500 287 500 C287 500.66 287 501.32 287 502 C286.34 502 285.68 502 285 502 C285 502.99 285 503.98 285 505 C284.34 505 283.68 505 283 505 C283 505.66 283 506.32 283 507 C281.35 507 279.7 507 278 507 C278 510.96 278 514.92 278 519 C277.01 519 276.02 519 275 519 C275 542.1 275 565.2 275 589 C274.34 589 273.68 589 273 589 C273 613.75 273 638.5 273 664 C272.34 664 271.68 664 271 664 C271 677.53 271 691.06 271 705 C270.01 705 269.02 705 268 705 C268 706.65 268 708.3 268 710 C267.34 710 266.68 710 266 710 C266 710.99 266 711.98 266 713 C265.01 713 264.02 713 263 713 C263 713.66 263 714.32 263 715 C262.34 715 261.68 715 261 715 C261 716.65 261 718.3 261 720 C260.34 720 259.68 720 259 720 C259 720.66 259 721.32 259 722 C265.93 722 272.86 722 280 722 C280 723.65 280 725.3 280 727 C280.99 727 281.98 727 283 727 C283 729.31 283 731.62 283 734 C283.66 734 284.32 734 285 734 C285 735.65 285 737.3 285 739 C285.66 739 286.32 739 287 739 C287 741.31 287 743.62 287 746 C287.99 746 288.98 746 290 746 C290 747.65 290 749.3 290 751 C290.66 751 291.32 751 292 751 C292 753.31 292 755.62 292 758 C292.99 758 293.98 758 295 758 C295 759.65 295 761.3 295 763 C295.66 763 296.32 763 297 763 C297 765.64 297 768.28 297 771 C297.99 771 298.98 771 300 771 C300 772.32 300 773.64 300 775 C300.66 775 301.32 775 302 775 C302 777.64 302 780.28 302 783 C302.66 783 303.32 783 304 783 C304 785.31 304 787.62 304 790 C304.99 790 305.98 790 307 790 C307 791.65 307 793.3 307 795 C307.66 795 308.32 795 309 795 C309 797.31 309 799.62 309 802 C309.99 802 310.98 802 312 802 C312 803.65 312 805.3 312 807 C312.66 807 313.32 807 314 807 C314 808.65 314 810.3 314 812 C314.66 812 315.32 812 316 812 C316 814.31 316 816.62 316 819 C316.99 819 317.98 819 319 819 C319 820.65 319 822.3 319 824 C319.66 824 320.32 824 321 824 C321 826.31 321 828.62 321 831 C321.99 831 322.98 831 324 831 C324 832.65 324 834.3 324 836 C324.66 836 325.32 836 326 836 C326 838.31 326 840.62 326 843 C326.99 843 327.98 843 329 843 C329 845.31 329 847.62 329 850 C329.66 850 330.32 850 331 850 C331 851.65 331 853.3 331 855 C331.66 855 332.32 855 333 855 C333 857.31 333 859.62 333 862 C333.99 862 334.98 862 336 862 C336 863.65 336 865.3 336 867 C336.66 867 337.32 867 338 867 C338 869.31 338 871.62 338 874 C338.99 874 339.98 874 341 874 C341 875.65 341 877.3 341 879 C341.66 879 342.32 879 343 879 C343 881.31 343 883.62 343 886 C343.66 886 344.32 886 345 886 C345 887.65 345 889.3 345 891 C345.99 891 346.98 891 348 891 C348 893.64 348 896.28 348 899 C348.66 899 349.32 899 350 899 C350 901.31 350 903.62 350 906 C350.99 906 351.98 906 353 906 C353 907.65 353 909.3 353 911 C353.66 911 354.32 911 355 911 C355 912.32 355 913.64 355 915 C354.34 915 353.68 915 353 915 C353 916.65 353 918.3 353 920 C351.35 920 349.7 920 348 920 C348 921.65 348 923.3 348 925 C347.01 925 346.02 925 345 925 C345 925.99 345 926.98 345 928 C344.34 928 343.68 928 343 928 C343 928.66 343 929.32 343 930 C342.34 930 341.68 930 341 930 C341 930.66 341 931.32 341 932 C340.01 932 339.02 932 338 932 C338 932.99 338 933.98 338 935 C337.34 935 336.68 935 336 935 C336 935.66 336 936.32 336 937 C335.01 937 334.02 937 333 937 C333 937.99 333 938.98 333 940 C332.34 940 331.68 940 331 940 C331 940.66 331 941.32 331 942 C330.34 942 329.68 942 329 942 C329 942.66 329 943.32 329 944 C328.01 944 327.02 944 326 944 C326 944.99 326 945.98 326 947 C325.34 947 324.68 947 324 947 C324 947.66 324 948.32 324 949 C323.01 949 322.02 949 321 949 C321 949.99 321 950.98 321 952 C319.35 952 317.7 952 316 952 C316 952.66 316 953.32 316 954 C313.69 954 311.38 954 309 954 C309 954.99 309 955.98 309 957 C303.39 957 297.78 957 292 957 C292 957.66 292 958.32 292 959 C287.38 959 282.76 959 278 959 C278 959.66 278 960.32 278 961 C274.04 961 270.08 961 266 961 C266 961.99 266 962.98 266 964 C261.05 964 256.1 964 251 964 C251 964.66 251 965.32 251 966 C246.38 966 241.76 966 237 966 C237 966.99 237 967.98 237 969 C232.05 969 227.1 969 222 969 C222 969.66 222 970.32 222 971 C218.04 971 214.08 971 210 971 C210 971.66 210 972.32 210 973 C205.38 973 200.76 973 196 973 C196 973.99 196 974.98 196 976 C191.05 976 186.1 976 181 976 C181 976.66 181 977.32 181 978 C177.04 978 173.08 978 169 978 C169 978.99 169 979.98 169 981 C164.38 981 159.76 981 155 981 C155 981.66 155 982.32 155 983 C151.04 983 147.08 983 143 983 C143 983.99 143 984.98 143 986 C138.71 986 134.42 986 130 986 C130 986.66 130 987.32 130 988 C125.38 988 120.76 988 116 988 C116 988.66 116 989.32 116 990 C111.38 990 106.76 990 102 990 C102 990.99 102 991.98 102 993 C97.71 993 93.42 993 89 993 C89 993.66 89 994.32 89 995 C85.04 995 81.08 995 77 995 C77 995.99 77 996.98 77 998 C72.38 998 67.76 998 63 998 C63 998.66 63 999.32 63 1000 C55.74 1000 48.48 1000 41 1000 C41 997.69 41 995.38 41 993 C40.34 993 39.68 993 39 993 C39 991.35 39 989.7 39 988 C38.01 988 37.02 988 36 988 C36 987.34 36 986.68 36 986 C35.34 986 34.68 986 34 986 C34 982.7 34 979.4 34 976 C33.01 976 32.02 976 31 976 C31 974.35 31 972.7 31 971 C30.34 971 29.68 971 29 971 C29 969.35 29 967.7 29 966 C28.34 966 27.68 966 27 966 C27 963.69 27 961.38 27 959 C26.01 959 25.02 959 24 959 C24 957.35 24 955.7 24 954 C23.34 954 22.68 954 22 954 C22 952.35 22 950.7 22 949 C21.01 949 20.02 949 19 949 C19 946.69 19 944.38 19 942 C18.34 942 17.68 942 17 942 C17 940.35 17 938.7 17 937 C16.34 937 15.68 937 15 937 C15 935.35 15 933.7 15 932 C14.01 932 13.02 932 12 932 C12 929.69 12 927.38 12 925 C11.34 925 10.68 925 10 925 C10 923.35 10 921.7 10 920 C9.01 920 8.02 920 7 920 C7 918.35 7 916.7 7 915 C6.34 915 5.68 915 5 915 C5 913.68 5 912.36 5 911 C4.01 911 3.02 911 2 911 C2 908.36 2 905.72 2 903 C1.34 903 0.68 903 0 903 C0 901.68 0 900.36 0 899 C-0.66 899 -1.32 899 -2 899 C-2 897.35 -2 895.7 -2 894 C-2.99 894 -3.98 894 -5 894 C-5 891.36 -5 888.72 -5 886 C-5.66 886 -6.32 886 -7 886 C-7 884.68 -7 883.36 -7 882 C-7.99 882 -8.98 882 -10 882 C-10 880.35 -10 878.7 -10 877 C-10.66 877 -11.32 877 -12 877 C-12 874.69 -12 872.38 -12 870 C-12.66 870 -13.32 870 -14 870 C-14 868.35 -14 866.7 -14 865 C-14.99 865 -15.98 865 -17 865 C-17 862.36 -17 859.72 -17 857 C-17.66 857 -18.32 857 -19 857 C-19 855.68 -19 854.36 -19 853 C-19.99 853 -20.98 853 -22 853 C-22 851.35 -22 849.7 -22 848 C-22.66 848 -23.32 848 -24 848 C-24 846.35 -24 844.7 -24 843 C-24.99 843 -25.98 843 -27 843 C-27 841.35 -27 839.7 -27 838 C-27.66 838 -28.32 838 -29 838 C-29 835.69 -29 833.38 -29 831 C-29.66 831 -30.32 831 -31 831 C-31 829.35 -31 827.7 -31 826 C-31.99 826 -32.98 826 -34 826 C-34 824.35 -34 822.7 -34 821 C-34.66 821 -35.32 821 -36 821 C-36 818.69 -36 816.38 -36 814 C-36.99 814 -37.98 814 -39 814 C-39 812.35 -39 810.7 -39 809 C-39.66 809 -40.32 809 -41 809 C-41 807.35 -41 805.7 -41 804 C-41.66 804 -42.32 804 -43 804 C-43 801.69 -43 799.38 -43 797 C-43.99 797 -44.98 797 -46 797 C-46 795.35 -46 793.7 -46 792 C-46.66 792 -47.32 792 -48 792 C-48 790.35 -48 788.7 -48 787 C-48.99 787 -49.98 787 -51 787 C-51 784.69 -51 782.38 -51 780 C-51.66 780 -52.32 780 -53 780 C-53 778.35 -53 776.7 -53 775 C-51.35 775 -49.7 775 -48 775 C-48 773.68 -48 772.36 -48 771 C-46.35 771 -44.7 771 -43 771 C-43 769.35 -43 767.7 -43 766 C-41.68 766 -40.36 766 -39 766 C-39 764.35 -39 762.7 -39 761 C-38.01 761 -37.02 761 -36 761 C-36 760.01 -36 759.02 -36 758 C-35.34 758 -34.68 758 -34 758 C-34 757.34 -34 756.68 -34 756 C-33.01 756 -32.02 756 -31 756 C-31 755.34 -31 754.68 -31 754 C-30.34 754 -29.68 754 -29 754 C-29 753.01 -29 752.02 -29 751 C-28.34 751 -27.68 751 -27 751 C-27 750.34 -27 749.68 -27 749 C-26.01 749 -25.02 749 -24 749 C-24 748.01 -24 747.02 -24 746 C-23.34 746 -22.68 746 -22 746 C-22 745.34 -22 744.68 -22 744 C-21.01 744 -20.02 744 -19 744 C-19 743.34 -19 742.68 -19 742 C-18.34 742 -17.68 742 -17 742 C-17 741.01 -17 740.02 -17 739 C-16.01 739 -15.02 739 -14 739 C-14 738.34 -14 737.68 -14 737 C-1.46 737 11.08 737 24 737 C24 736.01 24 735.02 24 734 C38.52 734 53.04 734 68 734 C68 733.34 68 732.68 68 732 C69.65 732 71.3 732 73 732 C73 731.01 73 730.02 73 729 C62.44 729 51.88 729 41 729 C41 728.34 41 727.68 41 727 C30.77 727 20.54 727 10 727 C10 726.34 10 725.68 10 725 C-0.56 725 -11.12 725 -22 725 C-22 721.04 -22 717.08 -22 713 C-21.01 713 -20.02 713 -19 713 C-19 705.74 -19 698.48 -19 691 C-18.34 691 -17.68 691 -17 691 C-17 685.39 -17 679.78 -17 674 C-16.01 674 -15.02 674 -14 674 C-14 667.73 -14 661.46 -14 655 C-13.34 655 -12.68 655 -12 655 C-12 646.75 -12 638.5 -12 630 C-11.34 630 -10.68 630 -10 630 C-10 623.07 -10 616.14 -10 609 C-9.01 609 -8.02 609 -7 609 C-7 602.4 -7 595.8 -7 589 C-6.34 589 -5.68 589 -5 589 C-5 582.07 -5 575.14 -5 568 C-4.01 568 -3.02 568 -2 568 C-2 560.74 -2 553.48 -2 546 C-1.34 546 -0.68 546 0 546 C0 538.08 0 530.16 0 522 C0.66 522 1.32 522 2 522 C2 514.74 2 507.48 2 500 C2.99 500 3.98 500 5 500 C5 492.74 5 485.48 5 478 C5.66 478 6.32 478 7 478 C7 470.08 7 462.16 7 454 C8.65 454 10.3 454 12 454 C12 453.34 12 452.68 12 452 C12.99 452 13.98 452 15 452 C15 451.01 15 450.02 15 449 C15.66 449 16.32 449 17 449 C17 447.35 17 445.7 17 444 C18.65 444 20.3 444 22 444 C22 442.68 22 441.36 22 440 C23.65 440 25.3 440 27 440 C27 438.35 27 436.7 27 435 C28.32 435 29.64 435 31 435 C31 433.35 31 431.7 31 430 C32.65 430 34.3 430 36 430 C36 428.35 36 426.7 36 425 C37.65 425 39.3 425 41 425 C41 423.35 41 421.7 41 420 C42.65 420 44.3 420 46 420 C46 419.34 46 418.68 46 418 C46.66 418 47.32 418 48 418 C48 417.01 48 416.02 48 415 C48.99 415 49.98 415 51 415 C51 414.34 51 413.68 51 413 C51.66 413 52.32 413 53 413 C53 412.34 53 411.68 53 411 C54.65 411 56.3 411 58 411 C58 410.01 58 409.02 58 408 C58.66 408 59.32 408 60 408 C60 407.34 60 406.68 60 406 C61.65 406 63.3 406 65 406 C65 405.01 65 404.02 65 403 C65.99 403 66.98 403 68 403 C68 402.34 68 401.68 68 401 C68.66 401 69.32 401 70 401 C70 400.34 70 399.68 70 399 C70.99 399 71.98 399 73 399 C73 398.01 73 397.02 73 396 C74.32 396 75.64 396 77 396 C77 395.34 77 394.68 77 394 C77.99 394 78.98 394 80 394 C80 393.01 80 392.02 80 391 C81.65 391 83.3 391 85 391 C85 390.34 85 389.68 85 389 C85.66 389 86.32 389 87 389 C87 388.01 87 387.02 87 386 C87.66 386 88.32 386 89 386 C89 385.34 89 384.68 89 384 C90.65 384 92.3 384 94 384 C94 383.34 94 382.68 94 382 C94.99 382 95.98 382 97 382 C97 381.01 97 380.02 97 379 C98.65 379 100.3 379 102 379 C102 378.34 102 377.68 102 377 C102.66 377 103.32 377 104 377 C104 376.01 104 375.02 104 374 C104.66 374 105.32 374 106 374 C106 373.34 106 372.68 106 372 C107.65 372 109.3 372 111 372 C111 371.34 111 370.68 111 370 C111.99 370 112.98 370 114 370 C114 369.01 114 368.02 114 367 C114.66 367 115.32 367 116 367 C116 366.34 116 365.68 116 365 C117.65 365 119.3 365 121 365 C121 364.01 121 363.02 121 362 C121.66 362 122.32 362 123 362 C123 361.34 123 360.68 123 360 C124.65 360 126.3 360 128 360 C128 359.01 128 358.02 128 357 C128.66 357 129.32 357 130 357 C130 356.34 130 355.68 130 355 C130.99 355 131.98 355 133 355 C133 354.34 133 353.68 133 353 C134.65 353 136.3 353 138 353 C138 352.01 138 351.02 138 350 C138.66 350 139.32 350 140 350 C140 349.34 140 348.68 140 348 C141.65 348 143.3 348 145 348 C145 347.01 145 346.02 145 345 C145.66 345 146.32 345 147 345 C147 344.34 147 343.68 147 343 C147.99 343 148.98 343 150 343 C150 342.34 150 341.68 150 341 C151.65 341 153.3 341 155 341 C155 340.01 155 339.02 155 338 C155.66 338 156.32 338 157 338 C157 337.34 157 336.68 157 336 C158.65 336 160.3 336 162 336 C162 335.01 162 334.02 162 333 C162.66 333 163.32 333 164 333 C164 332.34 164 331.68 164 331 C164.99 331 165.98 331 167 331 C167 330.34 167 329.68 167 329 C168.65 329 170.3 329 172 329 C172 328.01 172 327.02 172 326 C172.66 326 173.32 326 174 326 C174 325.34 174 324.68 174 324 C175.65 324 177.3 324 179 324 C179 323.01 179 322.02 179 321 C179.66 321 180.32 321 181 321 C181 320.34 181 319.68 181 319 C181.99 319 182.98 319 184 319 C184 318.01 184 317.02 184 316 C185.32 316 186.64 316 188 316 C188 315.34 188 314.68 188 314 C188.99 314 189.98 314 191 314 C191 310.04 191 306.08 191 302 C190.01 302 189.02 302 188 302 C188 298.7 188 295.4 188 292 C187.34 292 186.68 292 186 292 C186 289.03 186 286.06 186 283 C185.34 283 184.68 283 184 283 C184 279.7 184 276.4 184 273 C183.01 273 182.02 273 181 273 C181 271.35 181 269.7 181 268 C162.85 268 144.7 268 126 268 C126 279.22 126 290.44 126 302 C125.01 302 124.02 302 123 302 C123 311.57 123 321.14 123 331 C122.34 331 121.68 331 121 331 C121 331.66 121 332.32 121 333 C120.01 333 119.02 333 118 333 C118 333.99 118 334.98 118 336 C117.34 336 116.68 336 116 336 C116 336.66 116 337.32 116 338 C115.34 338 114.68 338 114 338 C114 339.65 114 341.3 114 343 C112.35 343 110.7 343 109 343 C109 343.66 109 344.32 109 345 C108.01 345 107.02 345 106 345 C106 345.99 106 346.98 106 348 C105.34 348 104.68 348 104 348 C104 348.66 104 349.32 104 350 C103.34 350 102.68 350 102 350 C102 350.99 102 351.98 102 353 C101.01 353 100.02 353 99 353 C99 353.66 99 354.32 99 355 C98.34 355 97.68 355 97 355 C97 355.66 97 356.32 97 357 C96.01 357 95.02 357 94 357 C94 357.99 94 358.98 94 360 C93.34 360 92.68 360 92 360 C92 360.66 92 361.32 92 362 C91.01 362 90.02 362 89 362 C89 362.99 89 363.98 89 365 C88.34 365 87.68 365 87 365 C87 365.66 87 366.32 87 367 C69.51 367 52.02 367 34 367 C34 366.34 34 365.68 34 365 C18.16 365 2.32 365 -14 365 C-14 364.01 -14 363.02 -14 362 C-31.82 362 -49.64 362 -68 362 C-68 361.34 -68 360.68 -68 360 C-85.49 360 -102.98 360 -121 360 C-121 359.01 -121 358.02 -121 357 C-124.96 357 -128.92 357 -133 357 C-133 355.68 -133 354.36 -133 353 C-133.66 353 -134.32 353 -135 353 C-135 351.35 -135 349.7 -135 348 C-135.99 348 -136.98 348 -138 348 C-138 346.35 -138 344.7 -138 343 C-138.66 343 -139.32 343 -140 343 C-140 341.35 -140 339.7 -140 338 C-140.66 338 -141.32 338 -142 338 C-142 336.35 -142 334.7 -142 333 C-142.99 333 -143.98 333 -145 333 C-145 331.68 -145 330.36 -145 329 C-145.66 329 -146.32 329 -147 329 C-147 326.36 -147 323.72 -147 321 C-147.99 321 -148.98 321 -150 321 C-150 319.35 -150 317.7 -150 316 C-150.66 316 -151.32 316 -152 316 C-152 314.68 -152 313.36 -152 312 C-152.99 312 -153.98 312 -155 312 C-155 310.35 -155 308.7 -155 307 C-155.66 307 -156.32 307 -157 307 C-157 305.35 -157 303.7 -157 302 C-157.66 302 -158.32 302 -159 302 C-159 300.35 -159 298.7 -159 297 C-159.99 297 -160.98 297 -162 297 C-162 295.35 -162 293.7 -162 292 C-162.66 292 -163.32 292 -164 292 C-164 290.35 -164 288.7 -164 287 C-164.99 287 -165.98 287 -167 287 C-167 285.68 -167 284.36 -167 283 C-167.66 283 -168.32 283 -169 283 C-169 281.35 -169 279.7 -169 278 C-169.66 278 -170.32 278 -171 278 C-171 275.69 -171 273.38 -171 271 C-171.99 271 -172.98 271 -174 271 C-174 269.35 -174 267.7 -174 266 C-174.66 266 -175.32 266 -176 266 C-176 264.35 -176 262.7 -176 261 C-176.99 261 -177.98 261 -179 261 C-179 259.35 -179 257.7 -179 256 C-179.66 256 -180.32 256 -181 256 C-181 254.35 -181 252.7 -181 251 C-181.99 251 -182.98 251 -184 251 C-184 249.35 -184 247.7 -184 246 C-184.66 246 -185.32 246 -186 246 C-186 244.68 -186 243.36 -186 242 C-186.66 242 -187.32 242 -188 242 C-188 240.35 -188 238.7 -188 237 C-188.99 237 -189.98 237 -191 237 C-191 235.35 -191 233.7 -191 232 C-191.66 232 -192.32 232 -193 232 C-193 230.35 -193 228.7 -193 227 C-193.99 227 -194.98 227 -196 227 C-196 225.35 -196 223.7 -196 222 C-196.66 222 -197.32 222 -198 222 C-198 220.35 -198 218.7 -198 217 C-198.66 217 -199.32 217 -200 217 C-200 214.69 -200 212.38 -200 210 C-200.99 210 -201.98 210 -203 210 C-203 208.35 -203 206.7 -203 205 C-203.66 205 -204.32 205 -205 205 C-205 203.35 -205 201.7 -205 200 C-205.99 200 -206.98 200 -208 200 C-208 198.68 -208 197.36 -208 196 C-208.66 196 -209.32 196 -210 196 C-210 194.35 -210 192.7 -210 191 C-210.99 191 -211.98 191 -213 191 C-213 189.35 -213 187.7 -213 186 C-213.66 186 -214.32 186 -215 186 C-215 184.35 -215 182.7 -215 181 C-215.66 181 -216.32 181 -217 181 C-217 179.35 -217 177.7 -217 176 C-217.99 176 -218.98 176 -220 176 C-220 174.35 -220 172.7 -220 171 C-220.66 171 -221.32 171 -222 171 C-222 169.68 -222 168.36 -222 167 C-222.99 167 -223.98 167 -225 167 C-225 165.35 -225 163.7 -225 162 C-225.66 162 -226.32 162 -227 162 C-227 159.69 -227 157.38 -227 155 C-227.66 155 -228.32 155 -229 155 C-229 153.35 -229 151.7 -229 150 C-229.99 150 -230.98 150 -232 150 C-232 147.69 -232 145.38 -232 143 C-231.01 143 -230.02 143 -229 143 C-229 141.35 -229 139.7 -229 138 C-227.68 138 -226.36 138 -225 138 C-225 137.01 -225 136.02 -225 135 C-224.01 135 -223.02 135 -222 135 C-222 134.34 -222 133.68 -222 133 C-221.34 133 -220.68 133 -220 133 C-220 132.01 -220 131.02 -220 130 C-219.01 130 -218.02 130 -217 130 C-217 129.34 -217 128.68 -217 128 C-216.34 128 -215.68 128 -215 128 C-215 127.34 -215 126.68 -215 126 C-214.34 126 -213.68 126 -213 126 C-213 125.01 -213 124.02 -213 123 C-212.01 123 -211.02 123 -210 123 C-210 122.34 -210 121.68 -210 121 C-209.34 121 -208.68 121 -208 121 C-208 120.01 -208 119.02 -208 118 C-207.01 118 -206.02 118 -205 118 C-205 117.34 -205 116.68 -205 116 C-204.34 116 -203.68 116 -203 116 C-203 115.34 -203 114.68 -203 114 C-202.01 114 -201.02 114 -200 114 C-200 113.01 -200 112.02 -200 111 C-199.34 111 -198.68 111 -198 111 C-198 110.34 -198 109.68 -198 109 C-197.34 109 -196.68 109 -196 109 C-196 108.01 -196 107.02 -196 106 C-195.01 106 -194.02 106 -193 106 C-193 105.34 -193 104.68 -193 104 C-191.35 104 -189.7 104 -188 104 C-188 103.01 -188 102.02 -188 101 C-186.68 101 -185.36 101 -184 101 C-184 100.34 -184 99.68 -184 99 C-182.35 99 -180.7 99 -179 99 C-179 98.34 -179 97.68 -179 97 C-177.35 97 -175.7 97 -174 97 C-174 96.01 -174 95.02 -174 94 C-173.01 94 -172.02 94 -171 94 C-171 93.34 -171 92.68 -171 92 C-169.68 92 -168.36 92 -167 92 C-167 91.01 -167 90.02 -167 89 C-165.35 89 -163.7 89 -162 89 C-162 88.34 -162 87.68 -162 87 C-160.35 87 -158.7 87 -157 87 C-157 86.34 -157 85.68 -157 85 C-155.35 85 -153.7 85 -152 85 C-152 84.01 -152 83.02 -152 82 C-150.35 82 -148.7 82 -147 82 C-147 81.34 -147 80.68 -147 80 C-146.34 80 -145.68 80 -145 80 C-145 79.01 -145 78.02 -145 77 C-143.35 77 -141.7 77 -140 77 C-140 76.34 -140 75.68 -140 75 C-138.35 75 -136.7 75 -135 75 C-135 74.01 -135 73.02 -135 72 C-133.35 72 -131.7 72 -130 72 C-130 71.34 -130 70.68 -130 70 C-128.68 70 -127.36 70 -126 70 C-126 69.34 -126 68.68 -126 68 C-124.35 68 -122.7 68 -121 68 C-121 67.01 -121 66.02 -121 65 C-119.35 65 -117.7 65 -116 65 C-116 64.34 -116 63.68 -116 63 C-114.35 63 -112.7 63 -111 63 C-111 62.01 -111 61.02 -111 60 C-110.34 60 -109.68 60 -109 60 C-109 59.34 -109 58.68 -109 58 C-107.35 58 -105.7 58 -104 58 C-104 57.34 -104 56.68 -104 56 C-102.35 56 -100.7 56 -99 56 C-99 55.01 -99 54.02 -99 53 C-97.35 53 -95.7 53 -94 53 C-94 52.34 -94 51.68 -94 51 C-92.35 51 -90.7 51 -89 51 C-89 50.01 -89 49.02 -89 48 C-87.35 48 -85.7 48 -84 48 C-84 47.34 -84 46.68 -84 46 C-83.34 46 -82.68 46 -82 46 C-82 45.01 -82 44.02 -82 43 C-80.35 43 -78.7 43 -77 43 C-77 42.34 -77 41.68 -77 41 C-75.35 41 -73.7 41 -72 41 C-72 40.34 -72 39.68 -72 39 C-70.68 39 -69.36 39 -68 39 C-68 38.01 -68 37.02 -68 36 C-66.35 36 -64.7 36 -63 36 C-63 35.34 -63 34.68 -63 34 C-61.35 34 -59.7 34 -58 34 C-58 33.01 -58 32.02 -58 31 C-57.01 31 -56.02 31 -55 31 C-55 30.34 -55 29.68 -55 29 C-53.68 29 -52.36 29 -51 29 C-51 28.34 -51 27.68 -51 27 C-49.35 27 -47.7 27 -46 27 C-46 26.01 -46 25.02 -46 24 C-44.35 24 -42.7 24 -41 24 C-41 23.34 -41 22.68 -41 22 C-39.35 22 -37.7 22 -36 22 C-36 21.01 -36 20.02 -36 19 C-35.34 19 -34.68 19 -34 19 C-34 18.34 -34 17.68 -34 17 C-32.35 17 -30.7 17 -29 17 C-29 16.01 -29 15.02 -29 14 C-27.35 14 -25.7 14 -24 14 C-24 13.34 -24 12.68 -24 12 C-22.35 12 -20.7 12 -19 12 C-19 11.34 -19 10.68 -19 10 C-17.35 10 -15.7 10 -14 10 C-14 9.01 -14 8.02 -14 7 C-12.68 7 -11.36 7 -10 7 C-10 6.34 -10 5.68 -10 5 C-9.01 5 -8.02 5 -7 5 C-7 4.01 -7 3.02 -7 2 C-4.69 2 -2.38 2 0 2 C0 1.34 0 0.68 0 0 Z " fill="#2865AB" transform="translate(367,0)"/>
<path d="M0 0 C4.29 0 8.58 0 13 0 C13 0.66 13 1.32 13 2 C15.97 2 18.94 2 22 2 C22 2.99 22 3.98 22 5 C25.3 5 28.6 5 32 5 C32 5.66 32 6.32 32 7 C35.3 7 38.6 7 42 7 C42 7.66 42 8.32 42 9 C46.62 9 51.24 9 56 9 C56 9.99 56 10.98 56 12 C59.96 12 63.92 12 68 12 C68 12.66 68 13.32 68 14 C71.96 14 75.92 14 80 14 C80 14.99 80 15.98 80 17 C83.96 17 87.92 17 92 17 C92 17.66 92 18.32 92 19 C95.3 19 98.6 19 102 19 C102 19.99 102 20.98 102 22 C105.96 22 109.92 22 114 22 C114 22.66 114 23.32 114 24 C117.96 24 121.92 24 126 24 C126 24.66 126 25.32 126 26 C130.95 26 135.9 26 141 26 C141 26.99 141 27.98 141 29 C143.31 29 145.62 29 148 29 C148 29.66 148 30.32 148 31 C151.96 31 155.92 31 160 31 C160 31.99 160 32.98 160 34 C163.96 34 167.92 34 172 34 C172 34.66 172 35.32 172 36 C175.96 36 179.92 36 184 36 C184 36.66 184 37.32 184 38 C188.95 38 193.9 38 199 38 C199 38.99 199 39.98 199 41 C202.96 41 206.92 41 211 41 C211 41.66 211 42.32 211 43 C213.31 43 215.62 43 218 43 C218 43.99 218 44.98 218 46 C221.96 46 225.92 46 230 46 C230 46.66 230 47.32 230 48 C234.62 48 239.24 48 244 48 C244 48.99 244 49.98 244 51 C248.29 51 252.58 51 257 51 C257 51.66 257 52.32 257 53 C260.96 53 264.92 53 269 53 C269 53.66 269 54.32 269 55 C271.97 55 274.94 55 278 55 C278 55.99 278 56.98 278 58 C281.3 58 284.6 58 288 58 C288 58.66 288 59.32 288 60 C291.96 60 295.92 60 300 60 C300 60.99 300 61.98 300 63 C303.96 63 307.92 63 312 63 C312 63.66 312 64.32 312 65 C316.95 65 321.9 65 327 65 C327 65.66 327 66.32 327 67 C329.97 67 332.94 67 336 67 C336 67.99 336 68.98 336 70 C340.95 70 345.9 70 351 70 C351 70.66 351 71.32 351 72 C354.96 72 358.92 72 363 72 C363 72.99 363 73.98 363 75 C365.31 75 367.62 75 370 75 C370 75.66 370 76.32 370 77 C373.96 77 377.92 77 382 77 C382 77.99 382 78.98 382 80 C385.96 80 389.92 80 394 80 C394 80.66 394 81.32 394 82 C396.31 82 398.62 82 401 82 C401 90.91 401 99.82 401 109 C401.99 109 402.98 109 404 109 C404 119.23 404 129.46 404 140 C404.66 140 405.32 140 406 140 C406 147.26 406 154.52 406 162 C406.99 162 407.98 162 409 162 C409 168.93 409 175.86 409 183 C409.66 183 410.32 183 411 183 C411 189.6 411 196.2 411 203 C411.99 203 412.98 203 414 203 C414 214.22 414 225.44 414 237 C414.66 237 415.32 237 416 237 C416 243.93 416 250.86 416 258 C416.66 258 417.32 258 418 258 C418 265.26 418 272.52 418 280 C418.99 280 419.98 280 421 280 C421 287.92 421 295.84 421 304 C420.01 304 419.02 304 418 304 C418 304.99 418 305.98 418 307 C417.34 307 416.68 307 416 307 C416 307.66 416 308.32 416 309 C415.34 309 414.68 309 414 309 C414 309.66 414 310.32 414 311 C413.01 311 412.02 311 411 311 C411 311.99 411 312.98 411 314 C410.34 314 409.68 314 409 314 C409 314.66 409 315.32 409 316 C407.35 316 405.7 316 404 316 C404 316.99 404 317.98 404 319 C403.01 319 402.02 319 401 319 C401 319.66 401 320.32 401 321 C400.34 321 399.68 321 399 321 C399 321.66 399 322.32 399 323 C398.34 323 397.68 323 397 323 C397 323.99 397 324.98 397 326 C395.35 326 393.7 326 392 326 C392 326.66 392 327.32 392 328 C391.01 328 390.02 328 389 328 C389 328.99 389 329.98 389 331 C388.34 331 387.68 331 387 331 C387 331.66 387 332.32 387 333 C386.34 333 385.68 333 385 333 C385 333.99 385 334.98 385 336 C383.35 336 381.7 336 380 336 C380 336.66 380 337.32 380 338 C379.01 338 378.02 338 377 338 C377 338.66 377 339.32 377 340 C376.34 340 375.68 340 375 340 C375 340.99 375 341.98 375 343 C373.35 343 371.7 343 370 343 C370 343.66 370 344.32 370 345 C369.34 345 368.68 345 368 345 C368 345.99 368 346.98 368 348 C367.01 348 366.02 348 365 348 C365 348.66 365 349.32 365 350 C364.34 350 363.68 350 363 350 C363 350.66 363 351.32 363 352 C361.35 352 359.7 352 358 352 C358 352.99 358 353.98 358 355 C357.34 355 356.68 355 356 355 C356 355.66 356 356.32 356 357 C355.01 357 354.02 357 353 357 C353 357.99 353 358.98 353 360 C352.34 360 351.68 360 351 360 C351 360.66 351 361.32 351 362 C349.35 362 347.7 362 346 362 C346 362.99 346 363.98 346 365 C345.01 365 344.02 365 343 365 C343 365.66 343 366.32 343 367 C342.34 367 341.68 367 341 367 C341 367.66 341 368.32 341 369 C340.34 369 339.68 369 339 369 C339 369.99 339 370.98 339 372 C337.35 372 335.7 372 334 372 C334 372.66 334 373.32 334 374 C333.01 374 332.02 374 331 374 C331 374.99 331 375.98 331 377 C330.34 377 329.68 377 329 377 C329 377.66 329 378.32 329 379 C328.34 379 327.68 379 327 379 C327 379.66 327 380.32 327 381 C325.35 381 323.7 381 322 381 C322 381.99 322 382.98 322 384 C321.01 384 320.02 384 319 384 C319 384.66 319 385.32 319 386 C318.34 386 317.68 386 317 386 C317 386.99 317 387.98 317 389 C316.01 389 315.02 389 314 389 C314 389.66 314 390.32 314 391 C312.68 391 311.36 391 310 391 C310 391.99 310 392.98 310 394 C309.01 394 308.02 394 307 394 C307 394.66 307 395.32 307 396 C306.34 396 305.68 396 305 396 C305 396.66 305 397.32 305 398 C304.01 398 303.02 398 302 398 C302 398.99 302 399.98 302 401 C300.68 401 299.36 401 298 401 C298 401.66 298 402.32 298 403 C297.01 403 296.02 403 295 403 C295 403.99 295 404.98 295 406 C294.34 406 293.68 406 293 406 C293 406.66 293 407.32 293 408 C292.01 408 291.02 408 290 408 C290 408.66 290 409.32 290 410 C288.35 410 286.7 410 285 410 C285 410.99 285 411.98 285 413 C284.34 413 283.68 413 283 413 C283 413.66 283 414.32 283 415 C282.34 415 281.68 415 281 415 C281 415.99 281 416.98 281 418 C280.01 418 279.02 418 278 418 C278 418.66 278 419.32 278 420 C276.35 420 274.7 420 273 420 C273 420.99 273 421.98 273 423 C272.34 423 271.68 423 271 423 C271 423.66 271 424.32 271 425 C270.34 425 269.68 425 269 425 C269 425.66 269 426.32 269 427 C268.01 427 267.02 427 266 427 C266 427.99 266 428.98 266 430 C264.35 430 262.7 430 261 430 C261 430.66 261 431.32 261 432 C260.34 432 259.68 432 259 432 C259 432.99 259 433.98 259 435 C258.34 435 257.68 435 257 435 C257 435.66 257 436.32 257 437 C255.35 437 253.7 437 252 437 C252 437.66 252 438.32 252 439 C251.01 439 250.02 439 249 439 C249 439.99 249 440.98 249 442 C248.34 442 247.68 442 247 442 C247 442.66 247 443.32 247 444 C246.01 444 245.02 444 244 444 C244 444.99 244 445.98 244 447 C242.68 447 241.36 447 240 447 C240 447.66 240 448.32 240 449 C239.01 449 238.02 449 237 449 C237 449.99 237 450.98 237 452 C236.34 452 235.68 452 235 452 C235 462.89 235 473.78 235 485 C234.01 485 233.02 485 232 485 C232 515.36 232 545.72 232 577 C231.34 577 230.68 577 230 577 C230 593.83 230 610.66 230 628 C221.09 628 212.18 628 203 628 C203 627.01 203 626.02 203 625 C196.07 625 189.14 625 182 625 C182 624.34 182 623.68 182 623 C171.44 623 160.88 623 150 623 C150 622.34 150 621.68 150 621 C141.42 621 132.84 621 124 621 C124 620.01 124 619.02 124 618 C118.39 618 112.78 618 107 618 C107 617.34 107 616.68 107 616 C99.08 616 91.16 616 83 616 C83 615.01 83 614.02 83 613 C76.4 613 69.8 613 63 613 C63 609.04 63 605.08 63 601 C63.99 601 64.98 601 66 601 C66 591.43 66 581.86 66 572 C66.66 572 67.32 572 68 572 C68 565.73 68 559.46 68 553 C68.99 553 69.98 553 71 553 C71 545.74 71 538.48 71 531 C71.66 531 72.32 531 73 531 C73 524.73 73 518.46 73 512 C73.66 512 74.32 512 75 512 C75 506.39 75 500.78 75 495 C75.99 495 76.98 495 78 495 C78 488.73 78 482.46 78 476 C78.66 476 79.32 476 80 476 C80 468.74 80 461.48 80 454 C80.99 454 81.98 454 83 454 C83 444.43 83 434.86 83 425 C83.66 425 84.32 425 85 425 C85 417.74 85 410.48 85 403 C85.66 403 86.32 403 87 403 C87 402.34 87 401.68 87 401 C87.99 401 88.98 401 90 401 C90 400.01 90 399.02 90 398 C91.65 398 93.3 398 95 398 C95 397.34 95 396.68 95 396 C95.66 396 96.32 396 97 396 C97 395.34 97 394.68 97 394 C98.65 394 100.3 394 102 394 C102 393.01 102 392.02 102 391 C102.66 391 103.32 391 104 391 C104 390.34 104 389.68 104 389 C104.99 389 105.98 389 107 389 C107 388.01 107 387.02 107 386 C108.65 386 110.3 386 112 386 C112 385.34 112 384.68 112 384 C112.66 384 113.32 384 114 384 C114 383.01 114 382.02 114 381 C115.65 381 117.3 381 119 381 C119 380.34 119 379.68 119 379 C119.66 379 120.32 379 121 379 C121 378.34 121 377.68 121 377 C122.65 377 124.3 377 126 377 C126 376.01 126 375.02 126 374 C126.66 374 127.32 374 128 374 C128 373.34 128 372.68 128 372 C129.65 372 131.3 372 133 372 C133 371.01 133 370.02 133 369 C133.99 369 134.98 369 136 369 C136 368.34 136 367.68 136 367 C137.65 367 139.3 367 141 367 C141 366.34 141 365.68 141 365 C141.66 365 142.32 365 143 365 C143 364.01 143 363.02 143 362 C144.65 362 146.3 362 148 362 C148 361.34 148 360.68 148 360 C148.66 360 149.32 360 150 360 C150 359.01 150 358.02 150 357 C150.99 357 151.98 357 153 357 C153 356.34 153 355.68 153 355 C154.32 355 155.64 355 157 355 C157 354.01 157 353.02 157 352 C157.99 352 158.98 352 160 352 C160 351.34 160 350.68 160 350 C161.65 350 163.3 350 165 350 C165 349.34 165 348.68 165 348 C165.66 348 166.32 348 167 348 C167 347.01 167 346.02 167 345 C168.65 345 170.3 345 172 345 C172 344.34 172 343.68 172 343 C172.66 343 173.32 343 174 343 C174 342.01 174 341.02 174 340 C175.65 340 177.3 340 179 340 C179 339.34 179 338.68 179 338 C179.99 338 180.98 338 182 338 C182 337.34 182 336.68 182 336 C183.32 336 184.64 336 186 336 C186 335.01 186 334.02 186 333 C186.99 333 187.98 333 189 333 C189 332.34 189 331.68 189 331 C190.65 331 192.3 331 194 331 C194 330.01 194 329.02 194 328 C194.66 328 195.32 328 196 328 C196 327.34 196 326.68 196 326 C197.65 326 199.3 326 201 326 C201 325.01 201 324.02 201 323 C201.66 323 202.32 323 203 323 C203 322.34 203 321.68 203 321 C204.65 321 206.3 321 208 321 C208 320.34 208 319.68 208 319 C208.99 319 209.98 319 211 319 C211 318.01 211 317.02 211 316 C212.32 316 213.64 316 215 316 C215 315.34 215 314.68 215 314 C215.99 314 216.98 314 218 314 C218 313.01 218 312.02 218 311 C219.65 311 221.3 311 223 311 C223 310.34 223 309.68 223 309 C223.66 309 224.32 309 225 309 C225 308.34 225 307.68 225 307 C226.65 307 228.3 307 230 307 C230 306.01 230 305.02 230 304 C230.66 304 231.32 304 232 304 C232 303.34 232 302.68 232 302 C233.65 302 235.3 302 237 302 C237 301.01 237 300.02 237 299 C237.99 299 238.98 299 240 299 C240 298.34 240 297.68 240 297 C241.32 297 242.64 297 244 297 C244 296.34 244 295.68 244 295 C244.99 295 245.98 295 247 295 C247 294.01 247 293.02 247 292 C248.65 292 250.3 292 252 292 C252 291.34 252 290.68 252 290 C252.66 290 253.32 290 254 290 C254 289.01 254 288.02 254 287 C254.99 287 255.98 287 257 287 C257 286.34 257 285.68 257 285 C258.32 285 259.64 285 261 285 C261 284.01 261 283.02 261 282 C261.99 282 262.98 282 264 282 C264 281.34 264 280.68 264 280 C265.65 280 267.3 280 269 280 C269 279.34 269 278.68 269 278 C269.66 278 270.32 278 271 278 C271 277.01 271 276.02 271 275 C272.65 275 274.3 275 276 275 C276 274.34 276 273.68 276 273 C276.66 273 277.32 273 278 273 C278 272.01 278 271.02 278 270 C279.65 270 281.3 270 283 270 C283 269.34 283 268.68 283 268 C283.66 268 284.32 268 285 268 C285 265.69 285 263.38 285 261 C284.34 261 283.68 261 283 261 C283 259.35 283 257.7 283 256 C282.34 256 281.68 256 281 256 C281 253.69 281 251.38 281 249 C280.01 249 279.02 249 278 249 C278 245.7 278 242.4 278 239 C277.34 239 276.68 239 276 239 C276 237.35 276 235.7 276 234 C275.01 234 274.02 234 273 234 C273 231.69 273 229.38 273 227 C272.34 227 271.68 227 271 227 C271 224.69 271 222.38 271 220 C270.34 220 269.68 220 269 220 C269 217.36 269 214.72 269 212 C268.01 212 267.02 212 266 212 C266 209.69 266 207.38 266 205 C265.34 205 264.68 205 264 205 C264 202.69 264 200.38 264 198 C263.01 198 262.02 198 261 198 C261 195.69 261 193.38 261 191 C260.34 191 259.68 191 259 191 C259 189.35 259 187.7 259 186 C258.34 186 257.68 186 257 186 C257 183.69 257 181.38 257 179 C256.01 179 255.02 179 254 179 C254 176.36 254 173.72 254 171 C253.34 171 252.68 171 252 171 C252 168.69 252 166.38 252 164 C251.01 164 250.02 164 249 164 C249 161.69 249 159.38 249 157 C248.34 157 247.68 157 247 157 C247 156.01 247 155.02 247 154 C195.19 154 143.38 154 90 154 C90 186.67 90 219.34 90 253 C55.68 253 21.36 253 -14 253 C-14 252.34 -14 251.68 -14 251 C-30.83 251 -47.66 251 -65 251 C-65 250.34 -65 249.68 -65 249 C-65.66 249 -66.32 249 -67 249 C-67 247.35 -67 245.7 -67 244 C-67.99 244 -68.98 244 -70 244 C-70 242.35 -70 240.7 -70 239 C-70.66 239 -71.32 239 -72 239 C-72 238.34 -72 237.68 -72 237 C-72.66 237 -73.32 237 -74 237 C-74 235.35 -74 233.7 -74 232 C-74.99 232 -75.98 232 -77 232 C-77 230.35 -77 228.7 -77 227 C-77.66 227 -78.32 227 -79 227 C-79 225.35 -79 223.7 -79 222 C-79.99 222 -80.98 222 -82 222 C-82 220.35 -82 218.7 -82 217 C-82.66 217 -83.32 217 -84 217 C-84 216.34 -84 215.68 -84 215 C-84.66 215 -85.32 215 -86 215 C-86 213.35 -86 211.7 -86 210 C-86.99 210 -87.98 210 -89 210 C-89 208.35 -89 206.7 -89 205 C-89.66 205 -90.32 205 -91 205 C-91 203.35 -91 201.7 -91 200 C-91.99 200 -92.98 200 -94 200 C-94 198.35 -94 196.7 -94 195 C-94.66 195 -95.32 195 -96 195 C-96 194.34 -96 193.68 -96 193 C-96.99 193 -97.98 193 -99 193 C-99 191.35 -99 189.7 -99 188 C-99.66 188 -100.32 188 -101 188 C-101 186.35 -101 184.7 -101 183 C-101.66 183 -102.32 183 -103 183 C-103 181.68 -103 180.36 -103 179 C-103.99 179 -104.98 179 -106 179 C-106 177.35 -106 175.7 -106 174 C-106.66 174 -107.32 174 -108 174 C-108 173.01 -108 172.02 -108 171 C-108.99 171 -109.98 171 -111 171 C-111 169.35 -111 167.7 -111 166 C-111.66 166 -112.32 166 -113 166 C-113 164.68 -113 163.36 -113 162 C-113.66 162 -114.32 162 -115 162 C-115 160.35 -115 158.7 -115 157 C-115.99 157 -116.98 157 -118 157 C-118 155.35 -118 153.7 -118 152 C-118.66 152 -119.32 152 -120 152 C-120 151.34 -120 150.68 -120 150 C-120.99 150 -121.98 150 -123 150 C-123 148.35 -123 146.7 -123 145 C-123.66 145 -124.32 145 -125 145 C-125 143.35 -125 141.7 -125 140 C-125.99 140 -126.98 140 -128 140 C-128 138.35 -128 136.7 -128 135 C-128.66 135 -129.32 135 -130 135 C-130 133.35 -130 131.7 -130 130 C-130.66 130 -131.32 130 -132 130 C-132 128.35 -132 126.7 -132 125 C-132.99 125 -133.98 125 -135 125 C-135 124.34 -135 123.68 -135 123 C-135.66 123 -136.32 123 -137 123 C-137 121.35 -137 119.7 -137 118 C-137.99 118 -138.98 118 -140 118 C-140 116.35 -140 114.7 -140 113 C-140.66 113 -141.32 113 -142 113 C-142 111.68 -142 110.36 -142 109 C-142.66 109 -143.32 109 -144 109 C-144 107.35 -144 105.7 -144 104 C-144.99 104 -145.98 104 -147 104 C-147 103.01 -147 102.02 -147 101 C-147.66 101 -148.32 101 -149 101 C-149 99.35 -149 97.7 -149 96 C-149.99 96 -150.98 96 -152 96 C-152 94.68 -152 93.36 -152 92 C-152.66 92 -153.32 92 -154 92 C-154 89.36 -154 86.72 -154 84 C-152.35 84 -150.7 84 -149 84 C-149 83.34 -149 82.68 -149 82 C-147.35 82 -145.7 82 -144 82 C-144 81.34 -144 80.68 -144 80 C-142.68 80 -141.36 80 -140 80 C-140 79.01 -140 78.02 -140 77 C-138.35 77 -136.7 77 -135 77 C-135 76.34 -135 75.68 -135 75 C-133.35 75 -131.7 75 -130 75 C-130 74.01 -130 73.02 -130 72 C-129.34 72 -128.68 72 -128 72 C-128 71.34 -128 70.68 -128 70 C-126.35 70 -124.7 70 -123 70 C-123 69.01 -123 68.02 -123 67 C-121.35 67 -119.7 67 -118 67 C-118 66.34 -118 65.68 -118 65 C-116.35 65 -114.7 65 -113 65 C-113 64.34 -113 63.68 -113 63 C-111.35 63 -109.7 63 -108 63 C-108 62.01 -108 61.02 -108 60 C-107.34 60 -106.68 60 -106 60 C-106 59.34 -106 58.68 -106 58 C-104.35 58 -102.7 58 -101 58 C-101 57.01 -101 56.02 -101 55 C-99.35 55 -97.7 55 -96 55 C-96 54.34 -96 53.68 -96 53 C-94.35 53 -92.7 53 -91 53 C-91 52.34 -91 51.68 -91 51 C-89.35 51 -87.7 51 -86 51 C-86 50.01 -86 49.02 -86 48 C-84.68 48 -83.36 48 -82 48 C-82 47.34 -82 46.68 -82 46 C-80.35 46 -78.7 46 -77 46 C-77 45.01 -77 44.02 -77 43 C-76.01 43 -75.02 43 -74 43 C-74 42.34 -74 41.68 -74 41 C-72.68 41 -71.36 41 -70 41 C-70 40.01 -70 39.02 -70 38 C-68.35 38 -66.7 38 -65 38 C-65 37.34 -65 36.68 -65 36 C-63.35 36 -61.7 36 -60 36 C-60 35.34 -60 34.68 -60 34 C-58.35 34 -56.7 34 -55 34 C-55 33.01 -55 32.02 -55 31 C-53.35 31 -51.7 31 -50 31 C-50 30.34 -50 29.68 -50 29 C-49.34 29 -48.68 29 -48 29 C-48 28.01 -48 27.02 -48 26 C-46.35 26 -44.7 26 -43 26 C-43 25.34 -43 24.68 -43 24 C-41.35 24 -39.7 24 -38 24 C-38 23.34 -38 22.68 -38 22 C-36.35 22 -34.7 22 -33 22 C-33 21.01 -33 20.02 -33 19 C-31.68 19 -30.36 19 -29 19 C-29 18.34 -29 17.68 -29 17 C-27.35 17 -25.7 17 -24 17 C-24 16.01 -24 15.02 -24 14 C-23.01 14 -22.02 14 -21 14 C-21 13.34 -21 12.68 -21 12 C-19.35 12 -17.7 12 -16 12 C-16 11.01 -16 10.02 -16 9 C-14.68 9 -13.36 9 -12 9 C-12 8.34 -12 7.68 -12 7 C-10.35 7 -8.7 7 -7 7 C-7 6.34 -7 5.68 -7 5 C-5.35 5 -3.7 5 -2 5 C-2 4.01 -2 3.02 -2 2 C-1.34 2 -0.68 2 0 2 C0 1.34 0 0.68 0 0 Z " fill="#FECA05" transform="translate(369,34)"/>
<path d="M0 0 C18.15 0 36.3 0 55 0 C55 1.65 55 3.3 55 5 C55.99 5 56.98 5 58 5 C58 7.31 58 9.62 58 12 C58.66 12 59.32 12 60 12 C60 13.65 60 15.3 60 17 C60.66 17 61.32 17 62 17 C62 19.31 62 21.62 62 24 C62.99 24 63.98 24 65 24 C65 27.3 65 30.6 65 34 C65.66 34 66.32 34 67 34 C67 34.66 67 35.32 67 36 C67.99 36 68.98 36 70 36 C70 38.31 70 40.62 70 43 C70.66 43 71.32 43 72 43 C72 44.65 72 46.3 72 48 C72.66 48 73.32 48 74 48 C74 50.31 74 52.62 74 55 C74.99 55 75.98 55 77 55 C77 56.65 77 58.3 77 60 C77.66 60 78.32 60 79 60 C79 62.31 79 64.62 79 67 C79.99 67 80.98 67 82 67 C82 68.65 82 70.3 82 72 C82.66 72 83.32 72 84 72 C84 74.31 84 76.62 84 79 C84.66 79 85.32 79 86 79 C86 81.64 86 84.28 86 87 C86.99 87 87.98 87 89 87 C89 88.32 89 89.64 89 91 C89.66 91 90.32 91 91 91 C91 93.64 91 96.28 91 99 C91.99 99 92.98 99 94 99 C94 100.65 94 102.3 94 104 C94.66 104 95.32 104 96 104 C96 106.31 96 108.62 96 111 C96.99 111 97.98 111 99 111 C99 112.65 99 114.3 99 116 C99.66 116 100.32 116 101 116 C101 118.31 101 120.62 101 123 C94.73 123 88.46 123 82 123 C82 123.66 82 124.32 82 125 C76.39 125 70.78 125 65 125 C65 125.99 65 126.98 65 128 C61.7 128 58.4 128 55 128 C55 128.66 55 129.32 55 130 C49.39 130 43.78 130 38 130 C38 130.99 38 131.98 38 133 C34.04 133 30.08 133 26 133 C26 133.66 26 134.32 26 135 C20.39 135 14.78 135 9 135 C9 135.66 9 136.32 9 137 C5.04 137 1.08 137 -3 137 C-3 137.99 -3 138.98 -3 140 C-8.61 140 -14.22 140 -20 140 C-20 140.66 -20 141.32 -20 142 C-24.62 142 -29.24 142 -34 142 C-34 142.99 -34 143.98 -34 145 C-39.61 145 -45.22 145 -51 145 C-51 145.66 -51 146.32 -51 147 C-54.96 147 -58.92 147 -63 147 C-63 147.66 -63 148.32 -63 149 C-68.61 149 -74.22 149 -80 149 C-80 149.99 -80 150.98 -80 152 C-85.61 152 -91.22 152 -97 152 C-97 150.35 -97 148.7 -97 147 C-97.66 147 -98.32 147 -99 147 C-99 145.35 -99 143.7 -99 142 C-99.99 142 -100.98 142 -102 142 C-102 140.35 -102 138.7 -102 137 C-102.66 137 -103.32 137 -104 137 C-104 135.68 -104 134.36 -104 133 C-104.99 133 -105.98 133 -107 133 C-107 131.35 -107 129.7 -107 128 C-107.66 128 -108.32 128 -109 128 C-109 126.35 -109 124.7 -109 123 C-109.99 123 -110.98 123 -112 123 C-112 120.69 -112 118.38 -112 116 C-112.66 116 -113.32 116 -114 116 C-114 114.35 -114 112.7 -114 111 C-114.66 111 -115.32 111 -116 111 C-116 109.35 -116 107.7 -116 106 C-116.99 106 -117.98 106 -119 106 C-119 104.35 -119 102.7 -119 101 C-119.66 101 -120.32 101 -121 101 C-121 98.69 -121 96.38 -121 94 C-121.99 94 -122.98 94 -124 94 C-124 92.35 -124 90.7 -124 89 C-124.66 89 -125.32 89 -126 89 C-126 87.35 -126 85.7 -126 84 C-126.66 84 -127.32 84 -128 84 C-128 82.35 -128 80.7 -128 79 C-128.99 79 -129.98 79 -131 79 C-131 77.68 -131 76.36 -131 75 C-131.66 75 -132.32 75 -133 75 C-133 73.35 -133 71.7 -133 70 C-133.99 70 -134.98 70 -136 70 C-136 67.69 -136 65.38 -136 63 C-136.66 63 -137.32 63 -138 63 C-138 61.35 -138 59.7 -138 58 C-138.99 58 -139.98 58 -141 58 C-141 56.35 -141 54.7 -141 53 C-141.66 53 -142.32 53 -143 53 C-143 51.35 -143 49.7 -143 48 C-143.66 48 -144.32 48 -145 48 C-145 45.69 -145 43.38 -145 41 C-145.99 41 -146.98 41 -148 41 C-148 39.35 -148 37.7 -148 36 C-148.66 36 -149.32 36 -150 36 C-150 34.35 -150 32.7 -150 31 C-150.99 31 -151.98 31 -153 31 C-153 29.35 -153 27.7 -153 26 C-153.66 26 -154.32 26 -155 26 C-155 24.35 -155 22.7 -155 21 C-155.66 21 -156.32 21 -157 21 C-157 19.68 -157 18.36 -157 17 C-157.99 17 -158.98 17 -160 17 C-160 13.7 -160 10.4 -160 7 C-159.30064835 6.98969254 -158.60129669 6.97938507 -157.88075256 6.96876526 C-151.30286337 6.87094968 -144.7250658 6.76845843 -138.14733219 6.66066074 C-134.76532878 6.60540198 -131.38331676 6.55197744 -128.0012207 6.50268555 C-124.11660573 6.44599054 -120.23214122 6.38142415 -116.34765625 6.31640625 C-114.51800072 6.29133751 -114.51800072 6.29133751 -112.65138245 6.26576233 C-111.53029587 6.24581711 -110.40920929 6.22587189 -109.25415039 6.20532227 C-108.26153702 6.18977798 -107.26892365 6.1742337 -106.24623108 6.15821838 C-104.03025703 6.24881556 -104.03025703 6.24881556 -103 5 C-100.26105915 4.91141354 -97.5474673 4.88476521 -94.80859375 4.90234375 C-93.98875504 4.9037587 -93.16891632 4.90517365 -92.32423401 4.90663147 C-89.69528618 4.91224711 -87.06642227 4.92480221 -84.4375 4.9375 C-82.65950643 4.94251299 -80.88151154 4.94707624 -79.10351562 4.95117188 C-74.73564455 4.96222161 -70.36783652 4.97949669 -66 5 C-66 4.01 -66 3.02 -66 2 C-44.22 2 -22.44 2 0 2 C0 1.34 0 0.68 0 0 Z " fill="#EABB07" transform="translate(568,766)"/>
<path d="M0 0 C4.29 0 8.58 0 13 0 C13 0.66 13 1.32 13 2 C15.97 2 18.94 2 22 2 C22 2.99 22 3.98 22 5 C25.3 5 28.6 5 32 5 C32 5.66 32 6.32 32 7 C35.3 7 38.6 7 42 7 C42 7.66 42 8.32 42 9 C46.62 9 51.24 9 56 9 C56 9.99 56 10.98 56 12 C59.96 12 63.92 12 68 12 C68 12.66 68 13.32 68 14 C71.96 14 75.92 14 80 14 C80 14.99 80 15.98 80 17 C83.96 17 87.92 17 92 17 C92 17.66 92 18.32 92 19 C95.3 19 98.6 19 102 19 C102 19.99 102 20.98 102 22 C105.96 22 109.92 22 114 22 C114 22.66 114 23.32 114 24 C117.96 24 121.92 24 126 24 C126 24.66 126 25.32 126 26 C130.95 26 135.9 26 141 26 C141 26.99 141 27.98 141 29 C143.31 29 145.62 29 148 29 C148 29.66 148 30.32 148 31 C151.96 31 155.92 31 160 31 C160 31.99 160 32.98 160 34 C163.96 34 167.92 34 172 34 C172 34.66 172 35.32 172 36 C175.96 36 179.92 36 184 36 C184 36.66 184 37.32 184 38 C188.95 38 193.9 38 199 38 C199 38.99 199 39.98 199 41 C202.96 41 206.92 41 211 41 C211 41.66 211 42.32 211 43 C213.31 43 215.62 43 218 43 C218 43.99 218 44.98 218 46 C221.96 46 225.92 46 230 46 C230 46.66 230 47.32 230 48 C234.62 48 239.24 48 244 48 C244 48.99 244 49.98 244 51 C248.29 51 252.58 51 257 51 C257 51.66 257 52.32 257 53 C260.96 53 264.92 53 269 53 C269 53.66 269 54.32 269 55 C271.97 55 274.94 55 278 55 C278 55.99 278 56.98 278 58 C281.3 58 284.6 58 288 58 C288 58.66 288 59.32 288 60 C291.96 60 295.92 60 300 60 C300 60.99 300 61.98 300 63 C303.96 63 307.92 63 312 63 C312 63.66 312 64.32 312 65 C316.95 65 321.9 65 327 65 C327 65.66 327 66.32 327 67 C329.97 67 332.94 67 336 67 C336 67.99 336 68.98 336 70 C340.95 70 345.9 70 351 70 C351 70.66 351 71.32 351 72 C354.96 72 358.92 72 363 72 C363 72.99 363 73.98 363 75 C365.31 75 367.62 75 370 75 C370 75.66 370 76.32 370 77 C373.96 77 377.92 77 382 77 C382 77.99 382 78.98 382 80 C385.96 80 389.92 80 394 80 C394 80.66 394 81.32 394 82 C396.31 82 398.62 82 401 82 C401 90.91 401 99.82 401 109 C401.99 109 402.98 109 404 109 C404 119.23 404 129.46 404 140 C404.66 140 405.32 140 406 140 C406 147.26 406 154.52 406 162 C406.99 162 407.98 162 409 162 C409 168.93 409 175.86 409 183 C409.66 183 410.32 183 411 183 C411 189.6 411 196.2 411 203 C411.99 203 412.98 203 414 203 C414 214.22 414 225.44 414 237 C414.66 237 415.32 237 416 237 C416 243.93 416 250.86 416 258 C416.66 258 417.32 258 418 258 C418 265.26 418 272.52 418 280 C418.99 280 419.98 280 421 280 C421 287.92 421 295.84 421 304 C420.01 304 419.02 304 418 304 C418 304.99 418 305.98 418 307 C417.34 307 416.68 307 416 307 C416 307.66 416 308.32 416 309 C415.34 309 414.68 309 414 309 C414 309.66 414 310.32 414 311 C413.01 311 412.02 311 411 311 C411 311.99 411 312.98 411 314 C410.34 314 409.68 314 409 314 C409 314.66 409 315.32 409 316 C407.35 316 405.7 316 404 316 C404 316.99 404 317.98 404 319 C403.01 319 402.02 319 401 319 C401 319.66 401 320.32 401 321 C400.34 321 399.68 321 399 321 C399 321.66 399 322.32 399 323 C398.34 323 397.68 323 397 323 C397 323.99 397 324.98 397 326 C395.35 326 393.7 326 392 326 C392 318.74 392 311.48 392 304 C391.01 304.33 390.02 304.66 389 305 C389 296.75 389 288.5 389 280 C388.34 280 387.68 280 387 280 C387 275.38 387 270.76 387 266 C386.34 266 385.68 266 385 266 C385 256.43 385 246.86 385 237 C384.01 237 383.02 237 382 237 C382 228.09 382 219.18 382 210 C381.34 210 380.68 210 380 210 C380 204.39 380 198.78 380 193 C379.01 193 378.02 193 377 193 C377 182.77 377 172.54 377 162 C376.34 162 375.68 162 375 162 C375 156.39 375 150.78 375 145 C374.01 145 373.02 145 372 145 C372 137.08 372 129.16 372 121 C371.34 121 370.68 121 370 121 C370 117.04 370 113.08 370 109 C365.38 109 360.76 109 356 109 C356 108.01 356 107.02 356 106 C351.05 106 346.1 106 341 106 C341 105.34 341 104.68 341 104 C338.69 104 336.38 104 334 104 C334 103.01 334 102.02 334 101 C330.04 101 326.08 101 322 101 C322 100.34 322 99.68 322 99 C318.04 99 314.08 99 310 99 C310 98.01 310 97.02 310 96 C306.04 96 302.08 96 298 96 C298 95.34 298 94.68 298 94 C294.7 94 291.4 94 288 94 C288 93.34 288 92.68 288 92 C284.04 92 280.08 92 276 92 C276 91.01 276 90.02 276 89 C270.39 89 264.78 89 259 89 C259 88.34 259 87.68 259 87 C255.7 87 252.4 87 249 87 C249 86.01 249 85.02 249 84 C245.04 84 241.08 84 237 84 C237 83.34 237 82.68 237 82 C234.03 82 231.06 82 228 82 C228 81.34 228 80.68 228 80 C223.71 80 219.42 80 215 80 C215 79.01 215 78.02 215 77 C212.03 77 209.06 77 206 77 C206 76.34 206 75.68 206 75 C202.04 75 198.08 75 194 75 C194 74.01 194 73.02 194 72 C190.04 72 186.08 72 182 72 C182 71.34 182 70.68 182 70 C177.05 70 172.1 70 167 70 C167 69.01 167 68.02 167 67 C163.7 67 160.4 67 157 67 C157 66.34 157 65.68 157 65 C152.38 65 147.76 65 143 65 C143 64.34 143 63.68 143 63 C139.7 63 136.4 63 133 63 C133 62.01 133 61.02 133 60 C129.04 60 125.08 60 121 60 C121 59.34 121 58.68 121 58 C118.03 58 115.06 58 112 58 C112 57.01 112 56.02 112 55 C108.04 55 104.08 55 100 55 C100 54.34 100 53.68 100 53 C95.71 53 91.42 53 87 53 C87 52.34 87 51.68 87 51 C82.38 51 77.76 51 73 51 C73 50.01 73 49.02 73 48 C69.7 48 66.4 48 63 48 C63 47.34 63 46.68 63 46 C59.04 46 55.08 46 51 46 C51 45.01 51 44.02 51 43 C48.03 43 45.06 43 42 43 C42 42.34 42 41.68 42 41 C37.05 41 32.1 41 27 41 C27 40.01 27 39.02 27 38 C23.04 38 19.08 38 15 38 C15 37.34 15 36.68 15 36 C10.05 36 5.1 36 0 36 C0 35.34 0 34.68 0 34 C-2.31 34 -4.62 34 -7 34 C-7 33.01 -7 32.02 -7 31 C-11.62 31 -16.24 31 -21 31 C-21 30.34 -21 29.68 -21 29 C-22.65 29 -24.3 29 -26 29 C-26 29.66 -26 30.32 -26 31 C-27.65 31 -29.3 31 -31 31 C-31 31.99 -31 32.98 -31 34 C-32.65 34 -34.3 34 -36 34 C-36 34.66 -36 35.32 -36 36 C-37.65 36 -39.3 36 -41 36 C-41 36.66 -41 37.32 -41 38 C-42.32 38 -43.64 38 -45 38 C-45 38.99 -45 39.98 -45 41 C-45.99 41 -46.98 41 -48 41 C-48 41.66 -48 42.32 -48 43 C-49.65 43 -51.3 43 -53 43 C-53 43.99 -53 44.98 -53 46 C-54.32 46 -55.64 46 -57 46 C-57 46.66 -57 47.32 -57 48 C-58.65 48 -60.3 48 -62 48 C-62 48.99 -62 49.98 -62 51 C-63.65 51 -65.3 51 -67 51 C-67 51.66 -67 52.32 -67 53 C-68.65 53 -70.3 53 -72 53 C-72 53.66 -72 54.32 -72 55 C-72.66 55 -73.32 55 -74 55 C-74 55.99 -74 56.98 -74 58 C-75.65 58 -77.3 58 -79 58 C-79 58.66 -79 59.32 -79 60 C-80.65 60 -82.3 60 -84 60 C-84 60.99 -84 61.98 -84 63 C-85.65 63 -87.3 63 -89 63 C-89 63.66 -89 64.32 -89 65 C-90.65 65 -92.3 65 -94 65 C-94 65.66 -94 66.32 -94 67 C-95.65 67 -97.3 67 -99 67 C-99 67.99 -99 68.98 -99 70 C-100.32 70 -101.64 70 -103 70 C-103 70.66 -103 71.32 -103 72 C-103.99 72 -104.98 72 -106 72 C-106 72.99 -106 73.98 -106 75 C-107.65 75 -109.3 75 -111 75 C-111 75.66 -111 76.32 -111 77 C-112.32 77 -113.64 77 -115 77 C-115 77.99 -115 78.98 -115 80 C-116.65 80 -118.3 80 -120 80 C-120 80.66 -120 81.32 -120 82 C-121.65 82 -123.3 82 -125 82 C-125 82.66 -125 83.32 -125 84 C-126.65 84 -128.3 84 -130 84 C-130 84.99 -130 85.98 -130 87 C-130.66 87 -131.32 87 -132 87 C-132 87.66 -132 88.32 -132 89 C-133.65 89 -135.3 89 -137 89 C-137 89.99 -137 90.98 -137 92 C-138.65 92 -140.3 92 -142 92 C-142 92.66 -142 93.32 -142 94 C-143.65 94 -145.3 94 -147 94 C-147 94.66 -147 95.32 -147 96 C-148.65 96 -150.3 96 -152 96 C-152 94.68 -152 93.36 -152 92 C-152.66 92 -153.32 92 -154 92 C-154 89.36 -154 86.72 -154 84 C-152.35 84 -150.7 84 -149 84 C-149 83.34 -149 82.68 -149 82 C-147.35 82 -145.7 82 -144 82 C-144 81.34 -144 80.68 -144 80 C-142.68 80 -141.36 80 -140 80 C-140 79.01 -140 78.02 -140 77 C-138.35 77 -136.7 77 -135 77 C-135 76.34 -135 75.68 -135 75 C-133.35 75 -131.7 75 -130 75 C-130 74.01 -130 73.02 -130 72 C-129.34 72 -128.68 72 -128 72 C-128 71.34 -128 70.68 -128 70 C-126.35 70 -124.7 70 -123 70 C-123 69.01 -123 68.02 -123 67 C-121.35 67 -119.7 67 -118 67 C-118 66.34 -118 65.68 -118 65 C-116.35 65 -114.7 65 -113 65 C-113 64.34 -113 63.68 -113 63 C-111.35 63 -109.7 63 -108 63 C-108 62.01 -108 61.02 -108 60 C-107.34 60 -106.68 60 -106 60 C-106 59.34 -106 58.68 -106 58 C-104.35 58 -102.7 58 -101 58 C-101 57.01 -101 56.02 -101 55 C-99.35 55 -97.7 55 -96 55 C-96 54.34 -96 53.68 -96 53 C-94.35 53 -92.7 53 -91 53 C-91 52.34 -91 51.68 -91 51 C-89.35 51 -87.7 51 -86 51 C-86 50.01 -86 49.02 -86 48 C-84.68 48 -83.36 48 -82 48 C-82 47.34 -82 46.68 -82 46 C-80.35 46 -78.7 46 -77 46 C-77 45.01 -77 44.02 -77 43 C-76.01 43 -75.02 43 -74 43 C-74 42.34 -74 41.68 -74 41 C-72.68 41 -71.36 41 -70 41 C-70 40.01 -70 39.02 -70 38 C-68.35 38 -66.7 38 -65 38 C-65 37.34 -65 36.68 -65 36 C-63.35 36 -61.7 36 -60 36 C-60 35.34 -60 34.68 -60 34 C-58.35 34 -56.7 34 -55 34 C-55 33.01 -55 32.02 -55 31 C-53.35 31 -51.7 31 -50 31 C-50 30.34 -50 29.68 -50 29 C-49.34 29 -48.68 29 -48 29 C-48 28.01 -48 27.02 -48 26 C-46.35 26 -44.7 26 -43 26 C-43 25.34 -43 24.68 -43 24 C-41.35 24 -39.7 24 -38 24 C-38 23.34 -38 22.68 -38 22 C-36.35 22 -34.7 22 -33 22 C-33 21.01 -33 20.02 -33 19 C-31.68 19 -30.36 19 -29 19 C-29 18.34 -29 17.68 -29 17 C-27.35 17 -25.7 17 -24 17 C-24 16.01 -24 15.02 -24 14 C-23.01 14 -22.02 14 -21 14 C-21 13.34 -21 12.68 -21 12 C-19.35 12 -17.7 12 -16 12 C-16 11.01 -16 10.02 -16 9 C-14.68 9 -13.36 9 -12 9 C-12 8.34 -12 7.68 -12 7 C-10.35 7 -8.7 7 -7 7 C-7 6.34 -7 5.68 -7 5 C-5.35 5 -3.7 5 -2 5 C-2 4.01 -2 3.02 -2 2 C-1.34 2 -0.68 2 0 2 C0 1.34 0 0.68 0 0 Z " fill="#C59F09" transform="translate(369,34)"/>
<path d="M0 0 C0.99 0 1.98 0 3 0 C3 1.65 3 3.3 3 5 C3.66 5 4.32 5 5 5 C5 6.65 5 8.3 5 10 C5.66 10 6.32 10 7 10 C7 12.31 7 14.62 7 17 C7.99 17 8.98 17 10 17 C10 18.65 10 20.3 10 22 C10.66 22 11.32 22 12 22 C12 24.31 12 26.62 12 29 C12.99 29 13.98 29 15 29 C15 30.65 15 32.3 15 34 C15.66 34 16.32 34 17 34 C17 35.65 17 37.3 17 39 C17.66 39 18.32 39 19 39 C19 41.31 19 43.62 19 46 C19.99 46 20.98 46 22 46 C22 47.65 22 49.3 22 51 C22.66 51 23.32 51 24 51 C24 52.65 24 54.3 24 56 C24.99 56 25.98 56 27 56 C27 58.31 27 60.62 27 63 C27.66 63 28.32 63 29 63 C29 64.65 29 66.3 29 68 C29.99 68 30.98 68 32 68 C32 69.65 32 71.3 32 73 C32.66 73 33.32 73 34 73 C34 74.32 34 75.64 34 77 C34.66 77 35.32 77 36 77 C36 79.64 36 82.28 36 85 C36.99 85 37.98 85 39 85 C39 86.65 39 88.3 39 90 C39.66 90 40.32 90 41 90 C41 91.32 41 92.64 41 94 C41.99 94 42.98 94 44 94 C44 95.65 44 97.3 44 99 C44.66 99 45.32 99 46 99 C46 101.31 46 103.62 46 106 C46.66 106 47.32 106 48 106 C48 107.65 48 109.3 48 111 C48.99 111 49.98 111 51 111 C51 112.65 51 114.3 51 116 C51.66 116 52.32 116 53 116 C53 118.31 53 120.62 53 123 C53.99 123 54.98 123 56 123 C56 124.65 56 126.3 56 128 C56.66 128 57.32 128 58 128 C58 129.65 58 131.3 58 133 C58.99 133 59.98 133 61 133 C61 135.31 61 137.62 61 140 C61.66 140 62.32 140 63 140 C63 141.65 63 143.3 63 145 C63.66 145 64.32 145 65 145 C65 146.65 65 148.3 65 150 C65.99 150 66.98 150 68 150 C68 152.31 68 154.62 68 157 C68.66 157 69.32 157 70 157 C70 158.65 70 160.3 70 162 C70.99 162 71.98 162 73 162 C73 163.65 73 165.3 73 167 C73.66 167 74.32 167 75 167 C75 169.31 75 171.62 75 174 C75.66 174 76.32 174 77 174 C77 175.65 77 177.3 77 179 C77.99 179 78.98 179 80 179 C80 180.65 80 182.3 80 184 C80.66 184 81.32 184 82 184 C82 186.31 82 188.62 82 191 C82.99 191 83.98 191 85 191 C85 192.65 85 194.3 85 196 C85.66 196 86.32 196 87 196 C87 197.65 87 199.3 87 201 C87.99 201 88.98 201 90 201 C90 203.31 90 205.62 90 208 C90.66 208 91.32 208 92 208 C92 209.65 92 211.3 92 213 C92.66 213 93.32 213 94 213 C94 214.65 94 216.3 94 218 C94.99 218 95.98 218 97 218 C97 220.31 97 222.62 97 225 C100.96 225 104.92 225 109 225 C109 224.01 109 223.02 109 222 C114.61 222 120.22 222 126 222 C126 221.34 126 220.68 126 220 C129.96 220 133.92 220 138 220 C138 219.34 138 218.68 138 218 C141.96 218 145.92 218 150 218 C150 217.01 150 216.02 150 215 C153.96 215 157.92 215 162 215 C162 214.34 162 213.68 162 213 C165.96 213 169.92 213 174 213 C174 212.01 174 211.02 174 210 C179.61 210 185.22 210 191 210 C191 209.34 191 208.68 191 208 C194.96 208 198.92 208 203 208 C203 207.01 203 206.02 203 205 C207.95 205 212.9 205 218 205 C218 204.34 218 203.68 218 203 C222.62 203 227.24 203 232 203 C232 202.34 232 201.68 232 201 C235.3 201 238.6 201 242 201 C242 200.01 242 199.02 242 198 C247.61 198 253.22 198 259 198 C259 197.34 259 196.68 259 196 C261.97 196 264.94 196 268 196 C268 195.01 268 194.02 268 193 C273.61 193 279.22 193 285 193 C285 192.34 285 191.68 285 191 C289.95 191 294.9 191 300 191 C300 190.34 300 189.68 300 189 C303.96 189 307.92 189 312 189 C312 188.01 312 187.02 312 186 C316.62 186 321.24 186 326 186 C326 185.34 326 184.68 326 184 C329.96 184 333.92 184 338 184 C338 183.01 338 182.02 338 181 C341.3 181 344.6 181 348 181 C348 180.34 348 179.68 348 179 C353.61 179 359.22 179 365 179 C365 178.01 365 177.02 365 176 C366.65 176 368.3 176 370 176 C370 177.65 370 179.3 370 181 C368.35 181 366.7 181 365 181 C365 182.65 365 184.3 365 186 C364.01 186 363.02 186 362 186 C362 186.99 362 187.98 362 189 C361.34 189 360.68 189 360 189 C360 189.66 360 190.32 360 191 C359.34 191 358.68 191 358 191 C358 191.66 358 192.32 358 193 C357.01 193 356.02 193 355 193 C355 193.99 355 194.98 355 196 C354.34 196 353.68 196 353 196 C353 196.66 353 197.32 353 198 C352.01 198 351.02 198 350 198 C350 198.99 350 199.98 350 201 C349.34 201 348.68 201 348 201 C348 201.66 348 202.32 348 203 C347.34 203 346.68 203 346 203 C346 203.66 346 204.32 346 205 C345.01 205 344.02 205 343 205 C343 205.99 343 206.98 343 208 C342.34 208 341.68 208 341 208 C341 208.66 341 209.32 341 210 C340.01 210 339.02 210 338 210 C338 210.99 338 211.98 338 213 C336.35 213 334.7 213 333 213 C333 213.66 333 214.32 333 215 C330.69 215 328.38 215 326 215 C326 215.99 326 216.98 326 218 C320.39 218 314.78 218 309 218 C309 218.66 309 219.32 309 220 C304.38 220 299.76 220 295 220 C295 220.66 295 221.32 295 222 C291.04 222 287.08 222 283 222 C283 222.99 283 223.98 283 225 C278.05 225 273.1 225 268 225 C268 225.66 268 226.32 268 227 C263.38 227 258.76 227 254 227 C254 227.99 254 228.98 254 230 C249.05 230 244.1 230 239 230 C239 230.66 239 231.32 239 232 C235.04 232 231.08 232 227 232 C227 232.66 227 233.32 227 234 C222.38 234 217.76 234 213 234 C213 234.99 213 235.98 213 237 C208.05 237 203.1 237 198 237 C198 237.66 198 238.32 198 239 C194.04 239 190.08 239 186 239 C186 239.99 186 240.98 186 242 C181.38 242 176.76 242 172 242 C172 242.66 172 243.32 172 244 C168.04 244 164.08 244 160 244 C160 244.99 160 245.98 160 247 C155.71 247 151.42 247 147 247 C147 247.66 147 248.32 147 249 C142.38 249 137.76 249 133 249 C133 249.66 133 250.32 133 251 C128.38 251 123.76 251 119 251 C119 251.99 119 252.98 119 254 C114.71 254 110.42 254 106 254 C106 254.66 106 255.32 106 256 C102.04 256 98.08 256 94 256 C94 256.99 94 257.98 94 259 C89.38 259 84.76 259 80 259 C80 259.66 80 260.32 80 261 C72.74 261 65.48 261 58 261 C58 258.69 58 256.38 58 254 C57.34 254 56.68 254 56 254 C56 252.35 56 250.7 56 249 C55.01 249 54.02 249 53 249 C53 248.34 53 247.68 53 247 C52.34 247 51.68 247 51 247 C51 243.7 51 240.4 51 237 C50.01 237 49.02 237 48 237 C48 235.35 48 233.7 48 232 C47.34 232 46.68 232 46 232 C46 230.35 46 228.7 46 227 C45.34 227 44.68 227 44 227 C44 224.69 44 222.38 44 220 C43.01 220 42.02 220 41 220 C41 218.35 41 216.7 41 215 C40.34 215 39.68 215 39 215 C39 213.35 39 211.7 39 210 C38.01 210 37.02 210 36 210 C36 207.69 36 205.38 36 203 C35.34 203 34.68 203 34 203 C34 201.35 34 199.7 34 198 C33.34 198 32.68 198 32 198 C32 196.35 32 194.7 32 193 C31.01 193 30.02 193 29 193 C29 190.69 29 188.38 29 186 C28.34 186 27.68 186 27 186 C27 184.35 27 182.7 27 181 C26.01 181 25.02 181 24 181 C24 179.35 24 177.7 24 176 C23.34 176 22.68 176 22 176 C22 174.68 22 173.36 22 172 C21.01 172 20.02 172 19 172 C19 169.36 19 166.72 19 164 C18.34 164 17.68 164 17 164 C17 162.68 17 161.36 17 160 C16.34 160 15.68 160 15 160 C15 158.35 15 156.7 15 155 C14.01 155 13.02 155 12 155 C12 152.36 12 149.72 12 147 C11.34 147 10.68 147 10 147 C10 145.68 10 144.36 10 143 C9.01 143 8.02 143 7 143 C7 141.35 7 139.7 7 138 C6.34 138 5.68 138 5 138 C5 135.69 5 133.38 5 131 C4.34 131 3.68 131 3 131 C3 129.35 3 127.7 3 126 C2.01 126 1.02 126 0 126 C0 123.36 0 120.72 0 118 C-0.66 118 -1.32 118 -2 118 C-2 116.68 -2 115.36 -2 114 C-2.99 114 -3.98 114 -5 114 C-5 112.35 -5 110.7 -5 109 C-5.66 109 -6.32 109 -7 109 C-7 107.35 -7 105.7 -7 104 C-7.99 104 -8.98 104 -10 104 C-10 102.35 -10 100.7 -10 99 C-10.66 99 -11.32 99 -12 99 C-12 96.69 -12 94.38 -12 92 C-12.66 92 -13.32 92 -14 92 C-14 90.35 -14 88.7 -14 87 C-14.99 87 -15.98 87 -17 87 C-17 85.35 -17 83.7 -17 82 C-17.66 82 -18.32 82 -19 82 C-19 79.69 -19 77.38 -19 75 C-19.99 75 -20.98 75 -22 75 C-22 73.35 -22 71.7 -22 70 C-22.66 70 -23.32 70 -24 70 C-24 68.35 -24 66.7 -24 65 C-24.66 65 -25.32 65 -26 65 C-26 62.69 -26 60.38 -26 58 C-26.99 58 -27.98 58 -29 58 C-29 56.35 -29 54.7 -29 53 C-29.66 53 -30.32 53 -31 53 C-31 51.35 -31 49.7 -31 48 C-31.99 48 -32.98 48 -34 48 C-34 45.69 -34 43.38 -34 41 C-34.66 41 -35.32 41 -36 41 C-36 39.35 -36 37.7 -36 36 C-34.35 36 -32.7 36 -31 36 C-31 34.68 -31 33.36 -31 32 C-29.35 32 -27.7 32 -26 32 C-26 30.35 -26 28.7 -26 27 C-24.68 27 -23.36 27 -22 27 C-22 25.35 -22 23.7 -22 22 C-21.01 22 -20.02 22 -19 22 C-19 21.01 -19 20.02 -19 19 C-18.34 19 -17.68 19 -17 19 C-17 18.34 -17 17.68 -17 17 C-16.01 17 -15.02 17 -14 17 C-14 16.34 -14 15.68 -14 15 C-13.34 15 -12.68 15 -12 15 C-12 14.01 -12 13.02 -12 12 C-11.34 12 -10.68 12 -10 12 C-10 11.34 -10 10.68 -10 10 C-9.01 10 -8.02 10 -7 10 C-7 9.01 -7 8.02 -7 7 C-6.34 7 -5.68 7 -5 7 C-5 6.34 -5 5.68 -5 5 C-4.01 5 -3.02 5 -2 5 C-2 4.34 -2 3.68 -2 3 C-1.34 3 -0.68 3 0 3 C0 2.01 0 1.02 0 0 Z " fill="#17396F" transform="translate(350,739)"/>
<path d="M0 0 C0.99 0 1.98 0 3 0 C3 10.23 3 20.46 3 31 C2.01 31 1.02 31 0 31 C0 61.36 0 91.72 0 123 C-0.66 123 -1.32 123 -2 123 C-2 139.83 -2 156.66 -2 174 C-10.91 174 -19.82 174 -29 174 C-29 136.71 -29 99.42 -29 61 C-27.515 60.505 -27.515 60.505 -26 60 C-26 48.78 -26 37.56 -26 26 C-25.34 26 -24.68 26 -24 26 C-24 25.34 -24 24.68 -24 24 C-23.01 24 -22.02 24 -21 24 C-21 23.34 -21 22.68 -21 22 C-20.34 22 -19.68 22 -19 22 C-19 21.01 -19 20.02 -19 19 C-18.34 19 -17.68 19 -17 19 C-17 18.34 -17 17.68 -17 17 C-16.01 17 -15.02 17 -14 17 C-14 16.01 -14 15.02 -14 14 C-13.34 14 -12.68 14 -12 14 C-12 13.34 -12 12.68 -12 12 C-11.01 12 -10.02 12 -9 12 C-9 11.34 -9 10.68 -9 10 C-8.34 10 -7.68 10 -7 10 C-7 9.01 -7 8.02 -7 7 C-6.01 7 -5.02 7 -4 7 C-4 6.34 -4 5.68 -4 5 C-3.34 5 -2.68 5 -2 5 C-2 4.01 -2 3.02 -2 2 C-1.34 2 -0.68 2 0 2 C0 1.34 0 0.68 0 0 Z " fill="#C6A008" transform="translate(601,488)"/>
<path d="M0 0 C0.99 0 1.98 0 3 0 C3 31.68 3 63.36 3 96 C-31.32 96 -65.64 96 -101 96 C-101 95.34 -101 94.68 -101 94 C-76.25 94 -51.5 94 -26 94 C-26 71.56 -26 49.12 -26 26 C-25.34 26 -24.68 26 -24 26 C-24 25.34 -24 24.68 -24 24 C-23.01 24 -22.02 24 -21 24 C-21 23.34 -21 22.68 -21 22 C-20.34 22 -19.68 22 -19 22 C-19 21.01 -19 20.02 -19 19 C-18.01 19 -17.02 19 -16 19 C-16 18.34 -16 17.68 -16 17 C-15.34 17 -14.68 17 -14 17 C-14 16.01 -14 15.02 -14 14 C-13.34 14 -12.68 14 -12 14 C-12 13.34 -12 12.68 -12 12 C-11.01 12 -10.02 12 -9 12 C-9 11.01 -9 10.02 -9 9 C-8.34 9 -7.68 9 -7 9 C-7 8.34 -7 7.68 -7 7 C-6.01 7 -5.02 7 -4 7 C-4 6.34 -4 5.68 -4 5 C-3.34 5 -2.68 5 -2 5 C-2 4.01 -2 3.02 -2 2 C-1.34 2 -0.68 2 0 2 C0 1.34 0 0.68 0 0 Z " fill="#C7A007" transform="translate(456,191)"/>
<path d="M0 0 C1.65 0 3.3 0 5 0 C5 0.99 5 1.98 5 3 C4.01 3 3.02 3 2 3 C2 3.66 2 4.32 2 5 C1.34 5 0.68 5 0 5 C0 5.66 0 6.32 0 7 C-0.66 7 -1.32 7 -2 7 C-2 7.99 -2 8.98 -2 10 C-2.99 10 -3.98 10 -5 10 C-5 10.66 -5 11.32 -5 12 C-5.66 12 -6.32 12 -7 12 C-7 12.99 -7 13.98 -7 15 C-7.99 15 -8.98 15 -10 15 C-10 15.66 -10 16.32 -10 17 C-10.66 17 -11.32 17 -12 17 C-12 17.99 -12 18.98 -12 20 C-12.66 20 -13.32 20 -14 20 C-14 20.66 -14 21.32 -14 22 C-14.99 22 -15.98 22 -17 22 C-17 22.66 -17 23.32 -17 24 C-18.65 24 -20.3 24 -22 24 C-22 24.99 -22 25.98 -22 27 C-22.66 27 -23.32 27 -24 27 C-24 27.66 -24 28.32 -24 29 C-25.65 29 -27.3 29 -29 29 C-29 29.99 -29 30.98 -29 32 C-29.66 32 -30.32 32 -31 32 C-31 32.66 -31 33.32 -31 34 C-31.99 34 -32.98 34 -34 34 C-34 34.66 -34 35.32 -34 36 C-35.65 36 -37.3 36 -39 36 C-39 36.99 -39 37.98 -39 39 C-39.66 39 -40.32 39 -41 39 C-41 39.66 -41 40.32 -41 41 C-42.65 41 -44.3 41 -46 41 C-46 41.99 -46 42.98 -46 44 C-46.66 44 -47.32 44 -48 44 C-48 44.66 -48 45.32 -48 46 C-49.65 46 -51.3 46 -53 46 C-53 46.66 -53 47.32 -53 48 C-53.99 48 -54.98 48 -56 48 C-56 48.99 -56 49.98 -56 51 C-57.32 51 -58.64 51 -60 51 C-60 51.66 -60 52.32 -60 53 C-60.99 53 -61.98 53 -63 53 C-63 53.99 -63 54.98 -63 56 C-64.65 56 -66.3 56 -68 56 C-68 56.66 -68 57.32 -68 58 C-68.66 58 -69.32 58 -70 58 C-70 58.99 -70 59.98 -70 61 C-71.65 61 -73.3 61 -75 61 C-75 61.66 -75 62.32 -75 63 C-75.66 63 -76.32 63 -77 63 C-77 63.66 -77 64.32 -77 65 C-78.65 65 -80.3 65 -82 65 C-82 65.99 -82 66.98 -82 68 C-82.99 68 -83.98 68 -85 68 C-85 68.66 -85 69.32 -85 70 C-86.32 70 -87.64 70 -89 70 C-89 70.99 -89 71.98 -89 73 C-89.99 73 -90.98 73 -92 73 C-92 73.66 -92 74.32 -92 75 C-93.65 75 -95.3 75 -97 75 C-97 75.66 -97 76.32 -97 77 C-97.66 77 -98.32 77 -99 77 C-99 77.99 -99 78.98 -99 80 C-100.65 80 -102.3 80 -104 80 C-104 80.66 -104 81.32 -104 82 C-104.66 82 -105.32 82 -106 82 C-106 82.99 -106 83.98 -106 85 C-106.99 85 -107.98 85 -109 85 C-109 85.66 -109 86.32 -109 87 C-110.65 87 -112.3 87 -114 87 C-114 87.99 -114 88.98 -114 90 C-115.32 90 -116.64 90 -118 90 C-118 90.66 -118 91.32 -118 92 C-118.99 92 -119.98 92 -121 92 C-121 92.66 -121 93.32 -121 94 C-122.65 94 -124.3 94 -126 94 C-126 94.99 -126 95.98 -126 97 C-126.66 97 -127.32 97 -128 97 C-128 97.66 -128 98.32 -128 99 C-129.65 99 -131.3 99 -133 99 C-133 99.99 -133 100.98 -133 102 C-133.66 102 -134.32 102 -135 102 C-135 102.66 -135 103.32 -135 104 C-136.65 104 -138.3 104 -140 104 C-140 104.66 -140 105.32 -140 106 C-140.99 106 -141.98 106 -143 106 C-143 106.99 -143 107.98 -143 109 C-144.32 109 -145.64 109 -147 109 C-147 109.66 -147 110.32 -147 111 C-147.99 111 -148.98 111 -150 111 C-150 111.99 -150 112.98 -150 114 C-150.66 114 -151.32 114 -152 114 C-152 114.66 -152 115.32 -152 116 C-153.65 116 -155.3 116 -157 116 C-157 116.99 -157 117.98 -157 119 C-157.66 119 -158.32 119 -159 119 C-159 119.66 -159 120.32 -159 121 C-160.65 121 -162.3 121 -164 121 C-164 121.66 -164 122.32 -164 123 C-164.99 123 -165.98 123 -167 123 C-167 123.99 -167 124.98 -167 126 C-168.32 126 -169.64 126 -171 126 C-171 126.66 -171 127.32 -171 128 C-171.99 128 -172.98 128 -174 128 C-174 128.99 -174 129.98 -174 131 C-175.65 131 -177.3 131 -179 131 C-179 131.66 -179 132.32 -179 133 C-179.66 133 -180.32 133 -181 133 C-181 133.66 -181 134.32 -181 135 C-181.99 135 -182.98 135 -184 135 C-184 135.99 -184 136.98 -184 138 C-184.66 138 -185.32 138 -186 138 C-186 134.7 -186 131.4 -186 128 C-185.34 128 -184.68 128 -184 128 C-184 127.34 -184 126.68 -184 126 C-183.01 126 -182.02 126 -181 126 C-181 125.01 -181 124.02 -181 123 C-179.35 123 -177.7 123 -176 123 C-176 122.34 -176 121.68 -176 121 C-175.34 121 -174.68 121 -174 121 C-174 120.34 -174 119.68 -174 119 C-172.35 119 -170.7 119 -169 119 C-169 118.01 -169 117.02 -169 116 C-168.34 116 -167.68 116 -167 116 C-167 115.34 -167 114.68 -167 114 C-166.01 114 -165.02 114 -164 114 C-164 113.01 -164 112.02 -164 111 C-162.35 111 -160.7 111 -159 111 C-159 110.34 -159 109.68 -159 109 C-158.34 109 -157.68 109 -157 109 C-157 108.01 -157 107.02 -157 106 C-155.35 106 -153.7 106 -152 106 C-152 105.34 -152 104.68 -152 104 C-151.34 104 -150.68 104 -150 104 C-150 103.34 -150 102.68 -150 102 C-148.35 102 -146.7 102 -145 102 C-145 101.01 -145 100.02 -145 99 C-144.34 99 -143.68 99 -143 99 C-143 98.34 -143 97.68 -143 97 C-141.35 97 -139.7 97 -138 97 C-138 96.01 -138 95.02 -138 94 C-137.01 94 -136.02 94 -135 94 C-135 93.34 -135 92.68 -135 92 C-133.35 92 -131.7 92 -130 92 C-130 91.34 -130 90.68 -130 90 C-129.34 90 -128.68 90 -128 90 C-128 89.01 -128 88.02 -128 87 C-126.35 87 -124.7 87 -123 87 C-123 86.34 -123 85.68 -123 85 C-122.34 85 -121.68 85 -121 85 C-121 84.01 -121 83.02 -121 82 C-120.01 82 -119.02 82 -118 82 C-118 81.34 -118 80.68 -118 80 C-116.68 80 -115.36 80 -114 80 C-114 79.01 -114 78.02 -114 77 C-113.01 77 -112.02 77 -111 77 C-111 76.34 -111 75.68 -111 75 C-109.35 75 -107.7 75 -106 75 C-106 74.34 -106 73.68 -106 73 C-105.34 73 -104.68 73 -104 73 C-104 72.01 -104 71.02 -104 70 C-102.35 70 -100.7 70 -99 70 C-99 69.34 -99 68.68 -99 68 C-98.34 68 -97.68 68 -97 68 C-97 67.01 -97 66.02 -97 65 C-95.35 65 -93.7 65 -92 65 C-92 64.34 -92 63.68 -92 63 C-91.01 63 -90.02 63 -89 63 C-89 62.34 -89 61.68 -89 61 C-87.68 61 -86.36 61 -85 61 C-85 60.01 -85 59.02 -85 58 C-84.01 58 -83.02 58 -82 58 C-82 57.34 -82 56.68 -82 56 C-80.35 56 -78.7 56 -77 56 C-77 55.01 -77 54.02 -77 53 C-76.34 53 -75.68 53 -75 53 C-75 52.34 -75 51.68 -75 51 C-73.35 51 -71.7 51 -70 51 C-70 50.01 -70 49.02 -70 48 C-69.34 48 -68.68 48 -68 48 C-68 47.34 -68 46.68 -68 46 C-66.35 46 -64.7 46 -63 46 C-63 45.34 -63 44.68 -63 44 C-62.01 44 -61.02 44 -60 44 C-60 43.01 -60 42.02 -60 41 C-58.68 41 -57.36 41 -56 41 C-56 40.34 -56 39.68 -56 39 C-55.01 39 -54.02 39 -53 39 C-53 38.01 -53 37.02 -53 36 C-51.35 36 -49.7 36 -48 36 C-48 35.34 -48 34.68 -48 34 C-47.34 34 -46.68 34 -46 34 C-46 33.34 -46 32.68 -46 32 C-44.35 32 -42.7 32 -41 32 C-41 31.01 -41 30.02 -41 29 C-40.34 29 -39.68 29 -39 29 C-39 28.34 -39 27.68 -39 27 C-37.35 27 -35.7 27 -34 27 C-34 26.01 -34 25.02 -34 24 C-33.01 24 -32.02 24 -31 24 C-31 23.34 -31 22.68 -31 22 C-29.68 22 -28.36 22 -27 22 C-27 21.34 -27 20.68 -27 20 C-26.01 20 -25.02 20 -24 20 C-24 19.01 -24 18.02 -24 17 C-22.35 17 -20.7 17 -19 17 C-19 16.34 -19 15.68 -19 15 C-18.34 15 -17.68 15 -17 15 C-17 14.01 -17 13.02 -17 12 C-16.01 12 -15.02 12 -14 12 C-14 11.34 -14 10.68 -14 10 C-12.68 10 -11.36 10 -10 10 C-10 9.01 -10 8.02 -10 7 C-9.01 7 -8.02 7 -7 7 C-7 6.34 -7 5.68 -7 5 C-5.35 5 -3.7 5 -2 5 C-2 4.34 -2 3.68 -2 3 C-1.34 3 -0.68 3 0 3 C0 2.01 0 1.02 0 0 Z " fill="#C19E0F" transform="translate(640,309)"/>
<path d="M0 0 C0.66 0 1.32 0 2 0 C2 1.65 2 3.3 2 5 C1.34 5 0.68 5 0 5 C0 5.99 0 6.98 0 8 C-0.99 8 -1.98 8 -3 8 C-3 8.66 -3 9.32 -3 10 C-3.66 10 -4.32 10 -5 10 C-5 10.66 -5 11.32 -5 12 C-5.99 12 -6.98 12 -8 12 C-8 12.99 -8 13.98 -8 15 C-8.66 15 -9.32 15 -10 15 C-10 15.66 -10 16.32 -10 17 C-10.99 17 -11.98 17 -13 17 C-13 17.99 -13 18.98 -13 20 C-13.66 20 -14.32 20 -15 20 C-15 20.66 -15 21.32 -15 22 C-15.66 22 -16.32 22 -17 22 C-17 22.66 -17 23.32 -17 24 C-17.99 24 -18.98 24 -20 24 C-20 24.99 -20 25.98 -20 27 C-21.65 27 -23.3 27 -25 27 C-25 27.66 -25 28.32 -25 29 C-25.66 29 -26.32 29 -27 29 C-27 29.99 -27 30.98 -27 32 C-27.66 32 -28.32 32 -29 32 C-29 32.66 -29 33.32 -29 34 C-29.99 34 -30.98 34 -32 34 C-32 34.99 -32 35.98 -32 37 C-32.66 37 -33.32 37 -34 37 C-34 37.66 -34 38.32 -34 39 C-35.65 39 -37.3 39 -39 39 C-39 39.66 -39 40.32 -39 41 C-39.99 41 -40.98 41 -42 41 C-42 41.99 -42 42.98 -42 44 C-42.66 44 -43.32 44 -44 44 C-44 44.66 -44 45.32 -44 46 C-44.66 46 -45.32 46 -46 46 C-46 46.99 -46 47.98 -46 49 C-46.99 49 -47.98 49 -49 49 C-49 49.66 -49 50.32 -49 51 C-50.65 51 -52.3 51 -54 51 C-54 51.66 -54 52.32 -54 53 C-54.66 53 -55.32 53 -56 53 C-56 53.99 -56 54.98 -56 56 C-56.66 56 -57.32 56 -58 56 C-58 56.66 -58 57.32 -58 58 C-58.99 58 -59.98 58 -61 58 C-61 58.99 -61 59.98 -61 61 C-61.66 61 -62.32 61 -63 61 C-63 61.66 -63 62.32 -63 63 C-64.65 63 -66.3 63 -68 63 C-68 63.99 -68 64.98 -68 66 C-68.99 66 -69.98 66 -71 66 C-71 66.66 -71 67.32 -71 68 C-71.66 68 -72.32 68 -73 68 C-73 68.66 -73 69.32 -73 70 C-73.66 70 -74.32 70 -75 70 C-75 70.99 -75 71.98 -75 73 C-76.65 73 -78.3 73 -80 73 C-80 73.66 -80 74.32 -80 75 C-80.99 75 -81.98 75 -83 75 C-83 75.99 -83 76.98 -83 78 C-83.66 78 -84.32 78 -85 78 C-85 78.66 -85 79.32 -85 80 C-85.66 80 -86.32 80 -87 80 C-87 80.66 -87 81.32 -87 82 C-87.99 82 -88.98 82 -90 82 C-90 82.99 -90 83.98 -90 85 C-91.65 85 -93.3 85 -95 85 C-95 85.66 -95 86.32 -95 87 C-95.66 87 -96.32 87 -97 87 C-97 87.99 -97 88.98 -97 90 C-97.99 90 -98.98 90 -100 90 C-100 90.66 -100 91.32 -100 92 C-100.66 92 -101.32 92 -102 92 C-102 92.99 -102 93.98 -102 95 C-102.66 95 -103.32 95 -104 95 C-104 95.66 -104 96.32 -104 97 C-105.65 97 -107.3 97 -109 97 C-109 97.66 -109 98.32 -109 99 C-109.99 99 -110.98 99 -112 99 C-112 99.99 -112 100.98 -112 102 C-112.66 102 -113.32 102 -114 102 C-114 102.66 -114 103.32 -114 104 C-114.66 104 -115.32 104 -116 104 C-116 104.99 -116 105.98 -116 107 C-116.99 107 -117.98 107 -119 107 C-119 107.66 -119 108.32 -119 109 C-120.65 109 -122.3 109 -124 109 C-124 109.66 -124 110.32 -124 111 C-124.66 111 -125.32 111 -126 111 C-126 111.99 -126 112.98 -126 114 C-126.99 114 -127.98 114 -129 114 C-129 114.66 -129 115.32 -129 116 C-129.66 116 -130.32 116 -131 116 C-131 116.99 -131 117.98 -131 119 C-131.66 119 -132.32 119 -133 119 C-133 119.66 -133 120.32 -133 121 C-134.65 121 -136.3 121 -138 121 C-138 121.99 -138 122.98 -138 124 C-138.99 124 -139.98 124 -141 124 C-141 124.66 -141 125.32 -141 126 C-141.66 126 -142.32 126 -143 126 C-143 126.66 -143 127.32 -143 128 C-143.66 128 -144.32 128 -145 128 C-145 128.99 -145 129.98 -145 131 C-146.65 131 -148.3 131 -150 131 C-150 131.66 -150 132.32 -150 133 C-150.99 133 -151.98 133 -153 133 C-153 133.99 -153 134.98 -153 136 C-153.66 136 -154.32 136 -155 136 C-155 136.66 -155 137.32 -155 138 C-155.99 138 -156.98 138 -158 138 C-158 138.66 -158 139.32 -158 140 C-158.66 140 -159.32 140 -160 140 C-160 140.99 -160 141.98 -160 143 C-160.66 143 -161.32 143 -162 143 C-162 143.66 -162 144.32 -162 145 C-163.65 145 -165.3 145 -167 145 C-167 143.35 -167 141.7 -167 140 C-166.34 140 -165.68 140 -165 140 C-165 139.34 -165 138.68 -165 138 C-164.01 138 -163.02 138 -162 138 C-162 137.34 -162 136.68 -162 136 C-161.34 136 -160.68 136 -160 136 C-160 135.01 -160 134.02 -160 133 C-159.34 133 -158.68 133 -158 133 C-158 132.34 -158 131.68 -158 131 C-157.01 131 -156.02 131 -155 131 C-155 130.01 -155 129.02 -155 128 C-153.35 128 -151.7 128 -150 128 C-150 127.34 -150 126.68 -150 126 C-149.34 126 -148.68 126 -148 126 C-148 125.34 -148 124.68 -148 124 C-147.01 124 -146.02 124 -145 124 C-145 123.01 -145 122.02 -145 121 C-144.34 121 -143.68 121 -143 121 C-143 120.34 -143 119.68 -143 119 C-141.35 119 -139.7 119 -138 119 C-138 118.01 -138 117.02 -138 116 C-137.34 116 -136.68 116 -136 116 C-136 115.34 -136 114.68 -136 114 C-135.01 114 -134.02 114 -133 114 C-133 113.01 -133 112.02 -133 111 C-132.34 111 -131.68 111 -131 111 C-131 110.34 -131 109.68 -131 109 C-130.34 109 -129.68 109 -129 109 C-129 108.34 -129 107.68 -129 107 C-127.35 107 -125.7 107 -124 107 C-124 106.01 -124 105.02 -124 104 C-123.01 104 -122.02 104 -121 104 C-121 103.34 -121 102.68 -121 102 C-120.34 102 -119.68 102 -119 102 C-119 101.01 -119 100.02 -119 99 C-118.01 99 -117.02 99 -116 99 C-116 98.34 -116 97.68 -116 97 C-115.34 97 -114.68 97 -114 97 C-114 96.34 -114 95.68 -114 95 C-112.35 95 -110.7 95 -109 95 C-109 94.01 -109 93.02 -109 92 C-108.34 92 -107.68 92 -107 92 C-107 91.34 -107 90.68 -107 90 C-106.01 90 -105.02 90 -104 90 C-104 89.01 -104 88.02 -104 87 C-103.34 87 -102.68 87 -102 87 C-102 86.34 -102 85.68 -102 85 C-101.34 85 -100.68 85 -100 85 C-100 84.01 -100 83.02 -100 82 C-98.35 82 -96.7 82 -95 82 C-95 81.34 -95 80.68 -95 80 C-94.01 80 -93.02 80 -92 80 C-92 79.34 -92 78.68 -92 78 C-91.34 78 -90.68 78 -90 78 C-90 77.01 -90 76.02 -90 75 C-89.01 75 -88.02 75 -87 75 C-87 74.34 -87 73.68 -87 73 C-85.68 73 -84.36 73 -83 73 C-83 72.01 -83 71.02 -83 70 C-82.01 70 -81.02 70 -80 70 C-80 69.34 -80 68.68 -80 68 C-79.34 68 -78.68 68 -78 68 C-78 67.34 -78 66.68 -78 66 C-77.01 66 -76.02 66 -75 66 C-75 65.01 -75 64.02 -75 63 C-74.34 63 -73.68 63 -73 63 C-73 62.34 -73 61.68 -73 61 C-71.35 61 -69.7 61 -68 61 C-68 60.01 -68 59.02 -68 58 C-67.34 58 -66.68 58 -66 58 C-66 57.34 -66 56.68 -66 56 C-65.01 56 -64.02 56 -63 56 C-63 55.01 -63 54.02 -63 53 C-62.34 53 -61.68 53 -61 53 C-61 52.34 -61 51.68 -61 51 C-60.01 51 -59.02 51 -58 51 C-58 50.34 -58 49.68 -58 49 C-56.68 49 -55.36 49 -54 49 C-54 48.01 -54 47.02 -54 46 C-53.01 46 -52.02 46 -51 46 C-51 45.34 -51 44.68 -51 44 C-50.34 44 -49.68 44 -49 44 C-49 43.01 -49 42.02 -49 41 C-48.01 41 -47.02 41 -46 41 C-46 40.34 -46 39.68 -46 39 C-45.34 39 -44.68 39 -44 39 C-44 38.34 -44 37.68 -44 37 C-42.35 37 -40.7 37 -39 37 C-39 36.01 -39 35.02 -39 34 C-38.34 34 -37.68 34 -37 34 C-37 33.34 -37 32.68 -37 32 C-36.01 32 -35.02 32 -34 32 C-34 31.01 -34 30.02 -34 29 C-33.34 29 -32.68 29 -32 29 C-32 28.34 -32 27.68 -32 27 C-31.01 27 -30.02 27 -29 27 C-29 26.01 -29 25.02 -29 24 C-27.68 24 -26.36 24 -25 24 C-25 23.34 -25 22.68 -25 22 C-24.01 22 -23.02 22 -22 22 C-22 21.34 -22 20.68 -22 20 C-21.34 20 -20.68 20 -20 20 C-20 19.01 -20 18.02 -20 17 C-19.01 17 -18.02 17 -17 17 C-17 16.34 -17 15.68 -17 15 C-15.68 15 -14.36 15 -13 15 C-13 14.01 -13 13.02 -13 12 C-12.01 12 -11.02 12 -10 12 C-10 11.34 -10 10.68 -10 10 C-9.34 10 -8.68 10 -8 10 C-8 9.34 -8 8.68 -8 8 C-7.01 8 -6.02 8 -5 8 C-5 7.01 -5 6.02 -5 5 C-4.34 5 -3.68 5 -3 5 C-3 4.34 -3 3.68 -3 3 C-2.01 3 -1.02 3 0 3 C0 2.01 0 1.02 0 0 Z " fill="#056DB1" transform="translate(812,362)"/>
<path d="M0 0 C0.99 0 1.98 0 3 0 C3 31.68 3 63.36 3 96 C-31.32 96 -65.64 96 -101 96 C-101 95.34 -101 94.68 -101 94 C-67.67 94 -34.34 94 0 94 C0 62.98 0 31.96 0 0 Z " fill="#8A8A55" transform="translate(456,191)"/>
<path d="M0 0 C30.36 0 60.72 0 92 0 C92 0.99 92 1.98 92 3 C61.64 3 31.28 3 0 3 C0 2.01 0 1.02 0 0 Z " fill="#698483" transform="translate(459,188)"/>
<path d="M0 0 C0.99 0 1.98 0 3 0 C3 21.45 3 42.9 3 65 C2.01 65 1.02 65 0 65 C0 43.55 0 22.1 0 0 Z " fill="#E5B706" transform="translate(427,220)"/>
<path d="M0 0 C19.47 0 38.94 0 59 0 C58.67 0.66 58.34 1.32 58 2 C39.52 2 21.04 2 2 2 C2 3.65 2 5.3 2 7 C1.34 7 0.68 7 0 7 C0 4.69 0 2.38 0 0 Z " fill="#747E66" transform="translate(406,771)"/>
<path d="M0 0 C0.66 0 1.32 0 2 0 C2 1.65 2 3.3 2 5 C1.34 5 0.68 5 0 5 C0 5.99 0 6.98 0 8 C-0.99 8 -1.98 8 -3 8 C-3 8.66 -3 9.32 -3 10 C-3.66 10 -4.32 10 -5 10 C-5 10.66 -5 11.32 -5 12 C-5.99 12 -6.98 12 -8 12 C-8 12.99 -8 13.98 -8 15 C-8.66 15 -9.32 15 -10 15 C-10 15.66 -10 16.32 -10 17 C-10.99 17 -11.98 17 -13 17 C-13 17.99 -13 18.98 -13 20 C-13.66 20 -14.32 20 -15 20 C-15 20.66 -15 21.32 -15 22 C-15.66 22 -16.32 22 -17 22 C-17 22.66 -17 23.32 -17 24 C-17.99 24 -18.98 24 -20 24 C-20 23.34 -20 22.68 -20 22 C-20.66 22 -21.32 22 -22 22 C-22 21.34 -22 20.68 -22 20 C-21.34 20 -20.68 20 -20 20 C-20 19.01 -20 18.02 -20 17 C-19.01 17 -18.02 17 -17 17 C-17 16.34 -17 15.68 -17 15 C-15.68 15 -14.36 15 -13 15 C-13 14.01 -13 13.02 -13 12 C-12.01 12 -11.02 12 -10 12 C-10 11.34 -10 10.68 -10 10 C-9.34 10 -8.68 10 -8 10 C-8 9.34 -8 8.68 -8 8 C-7.01 8 -6.02 8 -5 8 C-5 7.01 -5 6.02 -5 5 C-4.34 5 -3.68 5 -3 5 C-3 4.34 -3 3.68 -3 3 C-2.01 3 -1.02 3 0 3 C0 2.01 0 1.02 0 0 Z " fill="#0E67A8" transform="translate(812,362)"/>
<path d="M0 0 C0.99 0 1.98 0 3 0 C3 12.87 3 25.74 3 39 C2.01 39 1.02 39 0 39 C0 26.13 0 13.26 0 0 Z " fill="#798561" transform="translate(601,519)"/>
<path d="M0 0 C11.22 0 22.44 0 34 0 C34 0.99 34 1.98 34 3 C22.78 3 11.56 3 0 3 C0 2.01 0 1.02 0 0 Z " fill="#B0A447" transform="translate(459,188)"/>
<path d="M0 0 C9.9 0 19.8 0 30 0 C29.67 0.99 29.34 1.98 29 3 C19.43 3 9.86 3 0 3 C0 2.01 0 1.02 0 0 Z " fill="#758164" transform="translate(502,768)"/>
<path d="M0 0 C9.57 0 19.14 0 29 0 C29 0.99 29 1.98 29 3 C19.43 3 9.86 3 0 3 C0 2.01 0 1.02 0 0 Z " fill="#4D799B" transform="translate(551,188)"/>
<path d="M0 0 C9.57 0 19.14 0 29 0 C29 0.99 29 1.98 29 3 C19.43 3 9.86 3 0 3 C0 2.01 0 1.02 0 0 Z " fill="#84906C" transform="translate(493,188)"/>
<path d="M0 0 C0.99 0 1.98 0 3 0 C3 7.26 3 14.52 3 22 C2.01 22 1.02 22 0 22 C0 14.74 0 7.48 0 0 Z " fill="#4D4E81" transform="translate(490,280)"/>
<path d="M0 0 C0.99 0 1.98 0 3 0 C3 2.97 3 5.94 3 9 C5.97 9 8.94 9 12 9 C12 9.99 12 10.98 12 12 C8.04 12 4.08 12 0 12 C0 8.04 0 4.08 0 0 Z " fill="#294776" transform="translate(345,713)"/>
<path d="M0 0 C0.66 0 1.32 0 2 0 C2 6.27 2 12.54 2 19 C1.01 19 0.02 19 -1 19 C-1.02683987 16.02077407 -1.04676037 13.04178705 -1.0625 10.0625 C-1.07087891 9.21236328 -1.07925781 8.36222656 -1.08789062 7.48632812 C-1.09111328 6.67744141 -1.09433594 5.86855469 -1.09765625 5.03515625 C-1.10289307 4.2862915 -1.10812988 3.53742676 -1.11352539 2.76586914 C-1 1 -1 1 0 0 Z " fill="#567A87" transform="translate(602,539)"/>
<path d="M0 0 C5.94 0 11.88 0 18 0 C17.67 0.99 17.34 1.98 17 3 C11.39 3 5.78 3 0 3 C0 2.01 0 1.02 0 0 Z " fill="#3D71A8" transform="translate(580,188)"/>
<path d="M0 0 C5.61 0 11.22 0 17 0 C17 0.99 17 1.98 17 3 C11.39 3 5.78 3 0 3 C0 2.01 0 1.02 0 0 Z " fill="#5F787D" transform="translate(485,768)"/>
<path d="M0 0 C5.61 0 11.22 0 17 0 C17 0.99 17 1.98 17 3 C11.39 3 5.78 3 0 3 C0 2.01 0 1.02 0 0 Z " fill="#CCB230" transform="translate(493,652)"/>
<path d="M0 0 C5.61 0 11.22 0 17 0 C17 0.99 17 1.98 17 3 C11.39 3 5.78 3 0 3 C0 2.01 0 1.02 0 0 Z " fill="#657D86" transform="translate(435,647)"/>
<path d="M0 0 C4.95 0 9.9 0 15 0 C15 0.99 15 1.98 15 3 C10.05 3 5.1 3 0 3 C0 2.01 0 1.02 0 0 Z " fill="#9F9C55" transform="translate(478,188)"/>
<path d="M0 0 C4.95 0 9.9 0 15 0 C14.67 0.99 14.34 1.98 14 3 C9.38 3 4.76 3 0 3 C0 2.01 0 1.02 0 0 Z " fill="#718469" transform="translate(633,891)"/>
<path d="M0 0 C0.99 0 1.98 0 3 0 C3 4.62 3 9.24 3 14 C2.01 14.33 1.02 14.66 0 15 C0 10.05 0 5.1 0 0 Z " fill="#4072A0" transform="translate(601,558)"/>
<path d="M0 0 C4.62 0 9.24 0 14 0 C14 0.99 14 1.98 14 3 C9.38 3 4.76 3 0 3 C0 2.01 0 1.02 0 0 Z " fill="#5A7D8F" transform="translate(551,188)"/>
<path d="M0 0 C4.62 0 9.24 0 14 0 C14 0.99 14 1.98 14 3 C9.38 3 4.76 3 0 3 C0 2.01 0 1.02 0 0 Z " fill="#768A78" transform="translate(522,188)"/>
<path d="M0 0 C4.62 0 9.24 0 14 0 C14 0.99 14 1.98 14 3 C9.38 3 4.76 3 0 3 C0 2.01 0 1.02 0 0 Z " fill="#919560" transform="translate(493,188)"/>
<path d="M0 0 C0.66 0 1.32 0 2 0 C2 2.31 2 4.62 2 7 C-1.3 7 -4.6 7 -8 7 C-8 6.01 -8 5.02 -8 4 C-5.36 4 -2.72 4 0 4 C0 2.68 0 1.36 0 0 Z " fill="#A09334" transform="translate(667,882)"/>
<path d="M0 0 C4.29 0 8.58 0 13 0 C12.67 0.99 12.34 1.98 12 3 C8.04 3 4.08 3 0 3 C0 2.01 0 1.02 0 0 Z " fill="#A5932E" transform="translate(519,768)"/>
<path d="M0 0 C0.99 0 1.98 0 3 0 C3 3.96 3 7.92 3 12 C2.01 12 1.02 12 0 12 C0 8.04 0 4.08 0 0 Z " fill="#1963A9" transform="translate(386,643)"/>
<path d="M0 0 C0.99 0 1.98 0 3 0 C3 3.96 3 7.92 3 12 C2.01 12 1.02 12 0 12 C0 8.04 0 4.08 0 0 Z " fill="#1B68B0" transform="translate(408,447)"/>
<path d="M0 0 C0.99 0 1.98 0 3 0 C3 3.96 3 7.92 3 12 C2.01 12 1.02 12 0 12 C0 8.04 0 4.08 0 0 Z " fill="#7F8B59" transform="translate(780,237)"/>
<path d="M0 0 C0.99 0 1.98 0 3 0 C3 3.96 3 7.92 3 12 C2.01 12 1.02 12 0 12 C0 8.04 0 4.08 0 0 Z " fill="#DCB006" transform="translate(741,167)"/>
<path d="M0 0 C0.99 0 1.98 0 3 0 C3 3.96 3 7.92 3 12 C2.01 12 1.02 12 0 12 C0 8.04 0 4.08 0 0 Z " fill="#878D50" transform="translate(770,143)"/>
<path d="M0 0 C0.66 0 1.32 0 2 0 C2 3.96 2 7.92 2 12 C1.01 12 0.02 12 -1 12 C-1.02687279 10.18757948 -1.04633715 8.37504767 -1.0625 6.5625 C-1.07410156 5.55316406 -1.08570313 4.54382813 -1.09765625 3.50390625 C-1 1 -1 1 0 0 Z " fill="#E7B806" transform="translate(759,338)"/>
<path d="M0 0 C0.99 0 1.98 0 3 0 C3 3.3 3 6.6 3 10 C2.01 10.33 1.02 10.66 0 11 C0 7.37 0 3.74 0 0 Z " fill="#415A97" transform="translate(490,280)"/>
<path d="M0 0 C3.3 0 6.6 0 10 0 C10 0.99 10 1.98 10 3 C6.7 3 3.4 3 0 3 C0 2.01 0 1.02 0 0 Z " fill="#7C8F72" transform="translate(606,896)"/>
<path d="M0 0 C3.3 0 6.6 0 10 0 C10 0.99 10 1.98 10 3 C6.7 3 3.4 3 0 3 C0 2.01 0 1.02 0 0 Z " fill="#7C865C" transform="translate(572,659)"/>
<path d="M0 0 C0.99 0 1.98 0 3 0 C3 3.3 3 6.6 3 10 C2.01 10 1.02 10 0 10 C0 6.7 0 3.4 0 0 Z " fill="#1567AD" transform="translate(391,599)"/>
<path d="M0 0 C0.99 0 1.98 0 3 0 C3 3.3 3 6.6 3 10 C2.01 10 1.02 10 0 10 C0 6.7 0 3.4 0 0 Z " fill="#A89F4D" transform="translate(437,587)"/>
<path d="M0 0 C0.99 0 1.98 0 3 0 C3 3.3 3 6.6 3 10 C2.01 10 1.02 10 0 10 C0 6.7 0 3.4 0 0 Z " fill="#7F8A6F" transform="translate(444,519)"/>
<path d="M0 0 C0.99 0 1.98 0 3 0 C3 3.3 3 6.6 3 10 C2.01 10 1.02 10 0 10 C0 6.7 0 3.4 0 0 Z " fill="#8B8C4B" transform="translate(601,519)"/>
<path d="M0 0 C0.99 0 1.98 0 3 0 C3 3.3 3 6.6 3 10 C2.01 10 1.02 10 0 10 C0 6.7 0 3.4 0 0 Z " fill="#176AB2" transform="translate(403,495)"/>
<path d="M0 0 C0.99 0 1.98 0 3 0 C3 3.3 3 6.6 3 10 C2.01 10 1.02 10 0 10 C0 6.7 0 3.4 0 0 Z " fill="#8C9164" transform="translate(449,478)"/>
<path d="M0 0 C0.99 0 1.98 0 3 0 C3 3.3 3 6.6 3 10 C2.01 10 1.02 10 0 10 C0 6.7 0 3.4 0 0 Z " fill="#9E9436" transform="translate(787,314)"/>
<path d="M0 0 C0.99 0 1.98 0 3 0 C3 3.3 3 6.6 3 10 C2.01 10 1.02 10 0 10 C0 6.7 0 3.4 0 0 Z " fill="#5C8281" transform="translate(787,304)"/>
<path d="M0 0 C0.99 0 1.98 0 3 0 C3 3.3 3 6.6 3 10 C2.01 10 1.02 10 0 10 C0 6.7 0 3.4 0 0 Z " fill="#E1B406" transform="translate(746,217)"/>
<path d="M0 0 C0.99 0 1.98 0 3 0 C3 3.3 3 6.6 3 10 C2.01 10 1.02 10 0 10 C0 6.7 0 3.4 0 0 Z " fill="#658477" transform="translate(775,186)"/>
<path d="M0 0 C2.97 0 5.94 0 9 0 C9 0.99 9 1.98 9 3 C6.03 3 3.06 3 0 3 C0 2.01 0 1.02 0 0 Z " fill="#1F4A7F" transform="translate(440,729)"/>
<path d="M0 0 C0.99 0 1.98 0 3 0 C3 2.97 3 5.94 3 9 C2.01 9 1.02 9 0 9 C0 6.03 0 3.06 0 0 Z " fill="#838C6C" transform="translate(432,626)"/>
<path d="M0 0 C0.99 0 1.98 0 3 0 C3 2.97 3 5.94 3 9 C2.01 9 1.02 9 0 9 C0 6.03 0 3.06 0 0 Z " fill="#EDBD05" transform="translate(751,271)"/>
<path d="M0 0 C0.66 0 1.32 0 2 0 C2 2.97 2 5.94 2 9 C1.01 9 0.02 9 -1 9 C-1.09765625 2.84765625 -1.09765625 2.84765625 -1 1 C-0.67 0.67 -0.34 0.34 0 0 Z " fill="#677F74" transform="translate(602,539)"/>
<path d="M0 0 C0.66 0 1.32 0 2 0 C2 0.66 2 1.32 2 2 C2.99 2 3.98 2 5 2 C5 3.65 5 5.3 5 7 C4.01 7 3.02 7 2 7 C2 6.34 2 5.68 2 5 C1.34 5 0.68 5 0 5 C0 3.35 0 1.7 0 0 Z " fill="#637F7A" transform="translate(633,795)"/>
<path d="M0 0 C2.64 0 5.28 0 8 0 C8 0.99 8 1.98 8 3 C5.36 3 2.72 3 0 3 C0 2.01 0 1.02 0 0 Z " fill="#BFAC3A" transform="translate(526,908)"/>
<path d="M0 0 C2.64 0 5.28 0 8 0 C8 0.99 8 1.98 8 3 C5.36 3 2.72 3 0 3 C0 2.01 0 1.02 0 0 Z " fill="#A79F4E" transform="translate(444,647)"/>
<path d="M0 0 C0.99 0 1.98 0 3 0 C3 2.64 3 5.28 3 8 C2.01 8 1.02 8 0 8 C0 5.36 0 2.72 0 0 Z " fill="#D9AE07" transform="translate(751,263)"/>
<path d="M0 0 C0.99 0 1.98 0 3 0 C3 2.64 3 5.28 3 8 C2.01 8 1.02 8 0 8 C0 5.36 0 2.72 0 0 Z " fill="#457B9B" transform="translate(770,135)"/>
<path d="M0 0 C2.64 0 5.28 0 8 0 C8 0.99 8 1.98 8 3 C5.36 3 2.72 3 0 3 C0 2.01 0 1.02 0 0 Z " fill="#E5B706" transform="translate(555,106)"/>
<path d="M0 0 C2.64 0 5.28 0 8 0 C8 0.99 8 1.98 8 3 C5.36 3 2.72 3 0 3 C0 2.01 0 1.02 0 0 Z " fill="#E5B706" transform="translate(473,89)"/>
<path d="M0 0 C2.64 0 5.28 0 8 0 C8 0.99 8 1.98 8 3 C5.36 3 2.72 3 0 3 C0 2.01 0 1.02 0 0 Z " fill="#8B8B4C" transform="translate(560,72)"/>
<path d="M0 0 C2.64 0 5.28 0 8 0 C8 0.99 8 1.98 8 3 C5.36 3 2.72 3 0 3 C0 2.01 0 1.02 0 0 Z " fill="#828656" transform="translate(502,60)"/>
<path d="M0 0 C2.31 0 4.62 0 7 0 C7 0.99 7 1.98 7 3 C4.69 3 2.38 3 0 3 C0 2.01 0 1.02 0 0 Z " fill="#2C315D" transform="translate(669,954)"/>
<path d="M0 0 C1.65 0 3.3 0 5 0 C5 0.99 5 1.98 5 3 C4.34 3 3.68 3 3 3 C3 3.66 3 4.32 3 5 C2.01 5 1.02 5 0 5 C0 3.35 0 1.7 0 0 Z " fill="#333764" transform="translate(688,944)"/>
<path d="M0 0 C2.31 0 4.62 0 7 0 C7 0.99 7 1.98 7 3 C4.69 3 2.38 3 0 3 C0 2.01 0 1.02 0 0 Z " fill="#5C7F8D" transform="translate(565,903)"/>
<path d="M0 0 C2.31 0 4.62 0 7 0 C7 0.99 7 1.98 7 3 C4.69 3 2.38 3 0 3 C0 2.01 0 1.02 0 0 Z " fill="#8A894D" transform="translate(512,768)"/>
<path d="M0 0 C2.31 0 4.62 0 7 0 C7 0.99 7 1.98 7 3 C4.69 3 2.38 3 0 3 C0 2.01 0 1.02 0 0 Z " fill="#48518B" transform="translate(391,734)"/>
<path d="M0 0 C2.31 0 4.62 0 7 0 C7 0.99 7 1.98 7 3 C4.69 3 2.38 3 0 3 C0 2.01 0 1.02 0 0 Z " fill="#527993" transform="translate(565,659)"/>
<path d="M0 0 C2.31 0 4.62 0 7 0 C7 0.99 7 1.98 7 3 C4.69 3 2.38 3 0 3 C0 2.01 0 1.02 0 0 Z " fill="#8A9267" transform="translate(493,652)"/>
<path d="M0 0 C0.99 0 1.98 0 3 0 C3 2.31 3 4.62 3 7 C2.01 7 1.02 7 0 7 C0 4.69 0 2.38 0 0 Z " fill="#475789" transform="translate(642,512)"/>
<path d="M0 0 C2.31 0 4.62 0 7 0 C7 0.99 7 1.98 7 3 C4.69 3 2.38 3 0 3 C0 2.01 0 1.02 0 0 Z " fill="#E4B606" transform="translate(638,123)"/>
<path d="M0 0 C2.31 0 4.62 0 7 0 C7 0.99 7 1.98 7 3 C4.69 3 2.38 3 0 3 C0 2.01 0 1.02 0 0 Z " fill="#678474" transform="translate(751,111)"/>
<path d="M0 0 C2.31 0 4.62 0 7 0 C7 0.99 7 1.98 7 3 C4.69 3 2.38 3 0 3 C0 2.01 0 1.02 0 0 Z " fill="#597E84" transform="translate(705,101)"/>
<path d="M0 0 C1.65 0 3.3 0 5 0 C3.515 3.465 3.515 3.465 2 7 C1.34 7 0.68 7 0 7 C0 4.69 0 2.38 0 0 Z " fill="#355B9F" transform="translate(353,737)"/>
<path d="M0 0 C0.99 0 1.98 0 3 0 C3 1.65 3 3.3 3 5 C1.35 5 -0.3 5 -2 5 C-2 4.34 -2 3.68 -2 3 C-1.34 3 -0.68 3 0 3 C0 2.01 0 1.02 0 0 Z " fill="#B7A12A" transform="translate(647,304)"/>
</svg>
